<svg width="36" height="36" viewBox="0 0 36 36" fill="none" xmlns="http://www.w3.org/2000/svg">
<path fill-rule="evenodd" clip-rule="evenodd" d="M5.25516 2.25H30.7972C32.4352 2.25 33.7672 3.582 33.7672 5.22V25.83C33.7672 27.468 32.4352 28.8 30.7972 28.8H19.1332V31.5H30.7972C31.0492 31.5 31.2652 31.716 31.2652 31.968V33.282C31.2652 33.534 31.0492 33.75 30.7972 33.75H5.20116C4.94916 33.75 4.73316 33.534 4.73316 33.282V31.968C4.73316 31.716 4.94916 31.5 5.20116 31.5H16.8832V28.8H5.25516C3.61716 28.8 2.28516 27.468 2.28516 25.83V5.22C2.28516 3.582 3.61716 2.25 5.25516 2.25ZM30.7792 26.55C31.1752 26.55 31.4992 26.226 31.4992 25.83V5.22C31.4992 4.824 31.1752 4.5 30.7792 4.5H5.25516C4.85916 4.5 4.53516 4.824 4.53516 5.22V25.83C4.53516 26.226 4.85916 26.55 5.25516 26.55H30.7792Z" fill="#2C3FCE"/>
<path d="M11.7892 19.584C11.9512 19.746 12.2212 19.746 12.3832 19.584L15.5872 16.38L18.1792 18.972C18.3952 19.188 18.6832 19.296 18.9712 19.296C19.2592 19.296 19.5472 19.17 19.7632 18.972L25.4332 13.302V14.652C25.4332 14.886 25.6132 15.066 25.8472 15.066H27.2512C27.4852 15.066 27.6652 14.886 27.6652 14.652V9.648C27.6652 9.414 27.4852 9.234 27.2512 9.234H22.2472C22.0132 9.234 21.8332 9.414 21.8332 9.648V11.052C21.8332 11.286 22.0132 11.466 22.2472 11.466H24.0652L18.9532 16.578L16.3612 13.986C15.9292 13.554 15.2092 13.554 14.7772 13.986L10.7812 17.982C10.6192 18.144 10.6192 18.414 10.7812 18.576L11.7892 19.584Z" fill="#2C3FCE"/>
<path d="M9.44916 22.05V7.614C9.44916 7.38 9.26916 7.2 9.03516 7.2H7.63116C7.39716 7.2 7.21716 7.38 7.21716 7.614V23.868C7.21716 24.102 7.39716 24.282 7.63116 24.282H28.3672C28.6012 24.282 28.7812 24.102 28.7812 23.868V22.464C28.7812 22.23 28.6012 22.05 28.3672 22.05H9.44916Z" fill="#2C3FCE"/>
<path fill-rule="evenodd" clip-rule="evenodd" d="M5.25516 2.25H30.7972C32.4352 2.25 33.7672 3.582 33.7672 5.22V25.83C33.7672 27.468 32.4352 28.8 30.7972 28.8H19.1332V31.5H30.7972C31.0492 31.5 31.2652 31.716 31.2652 31.968V33.282C31.2652 33.534 31.0492 33.75 30.7972 33.75H5.20116C4.94916 33.75 4.73316 33.534 4.73316 33.282V31.968C4.73316 31.716 4.94916 31.5 5.20116 31.5H16.8832V28.8H5.25516C3.61716 28.8 2.28516 27.468 2.28516 25.83V5.22C2.28516 3.582 3.61716 2.25 5.25516 2.25ZM30.7792 26.55C31.1752 26.55 31.4992 26.226 31.4992 25.83V5.22C31.4992 4.824 31.1752 4.5 30.7792 4.5H5.25516C4.85916 4.5 4.53516 4.824 4.53516 5.22V25.83C4.53516 26.226 4.85916 26.55 5.25516 26.55H30.7792Z" stroke="white" stroke-width="0.7"/>
<path d="M11.7892 19.584C11.9512 19.746 12.2212 19.746 12.3832 19.584L15.5872 16.38L18.1792 18.972C18.3952 19.188 18.6832 19.296 18.9712 19.296C19.2592 19.296 19.5472 19.17 19.7632 18.972L25.4332 13.302V14.652C25.4332 14.886 25.6132 15.066 25.8472 15.066H27.2512C27.4852 15.066 27.6652 14.886 27.6652 14.652V9.648C27.6652 9.414 27.4852 9.234 27.2512 9.234H22.2472C22.0132 9.234 21.8332 9.414 21.8332 9.648V11.052C21.8332 11.286 22.0132 11.466 22.2472 11.466H24.0652L18.9532 16.578L16.3612 13.986C15.9292 13.554 15.2092 13.554 14.7772 13.986L10.7812 17.982C10.6192 18.144 10.6192 18.414 10.7812 18.576L11.7892 19.584Z" stroke="white" stroke-width="0.7"/>
<path d="M9.44916 22.05V7.614C9.44916 7.38 9.26916 7.2 9.03516 7.2H7.63116C7.39716 7.2 7.21716 7.38 7.21716 7.614V23.868C7.21716 24.102 7.39716 24.282 7.63116 24.282H28.3672C28.6012 24.282 28.7812 24.102 28.7812 23.868V22.464C28.7812 22.23 28.6012 22.05 28.3672 22.05H9.44916Z" stroke="white" stroke-width="0.7"/>
</svg>
