<svg width="32" height="32" viewBox="0 0 32 32" fill="none" xmlns="http://www.w3.org/2000/svg">
<path fill-rule="evenodd" clip-rule="evenodd" d="M3.328 0.25C1.636 0.25 0.25 1.636 0.25 3.328V28.69C0.25 30.382 1.636 31.768 3.328 31.768H28.69C30.382 31.768 31.768 30.382 31.768 28.69V3.328C31.768 1.636 30.382 0.25 28.69 0.25H3.328ZM3.328 2.95H28.69C28.888 2.95 29.068 3.112 29.068 3.328V8.098H2.95V3.328C2.95 3.13 3.112 2.95 3.328 2.95ZM19.456 29.05V10.816H12.58V29.05H19.456ZM2.95 28.672V10.816H9.844V29.032H3.31C3.112 29.032 2.932 28.87 2.932 28.654L2.95 28.672ZM22.174 29.05H28.672C28.888 29.05 29.05 28.87 29.05 28.672V10.816H22.174V29.05Z" fill="#2C3FCE"/>
</svg>
