<svg width="22" height="30" viewBox="0 0 22 30" fill="none" xmlns="http://www.w3.org/2000/svg">
<path d="M21.512 8.6641L13.664 0.816098C13.52 0.672098 13.34 0.600098 13.16 0.600098H1.64001C0.848012 0.600098 0.200012 1.2481 0.200012 2.0401V27.9601C0.200012 28.7521 0.848012 29.4001 1.64001 29.4001H20.36C21.152 29.4001 21.8 28.7521 21.8 27.9601V9.1321C21.764 8.9161 21.656 8.8081 21.512 8.6641ZM13.88 3.0481L19.352 8.5201H13.88V3.0481ZM20.36 27.9601H1.64001V2.0401H12.44V9.2401C12.44 9.6361 12.764 9.9601 13.16 9.9601H20.36V27.9601Z" fill="#2C3FCE"/>
</svg>
