<svg width="36" height="36" viewBox="0 0 36 36" fill="none" xmlns="http://www.w3.org/2000/svg">
<path d="M11.8125 16.9256C11.8125 17.0831 11.88 20.8125 18 20.8125C24.12 20.8125 24.1875 17.0831 24.1875 16.9256C24.1875 14.6081 22.905 12.5887 21.015 11.5256C21.5887 10.845 21.9375 9.96187 21.9375 9C21.9375 6.82875 20.1713 5.0625 18 5.0625C15.8288 5.0625 14.0625 6.82875 14.0625 9C14.0625 9.96187 14.4112 10.845 14.985 11.5256C13.095 12.5887 11.8125 14.6081 11.8125 16.9256ZM18 7.3125C18.9281 7.3125 19.6875 8.07188 19.6875 9C19.6875 9.92812 18.9281 10.6875 18 10.6875C17.0719 10.6875 16.3125 9.92812 16.3125 9C16.3125 8.07188 17.0719 7.3125 18 7.3125ZM18 12.9881C20.16 12.9881 21.9206 14.7375 21.9375 16.8975C21.9206 17.055 21.645 18.5625 18 18.5625C14.2369 18.5625 14.0681 16.9537 14.0625 16.9256C14.0625 14.7544 15.8288 12.9881 18 12.9881Z" fill="#2C3FCE"/>
<path d="M32.0625 7.875H27.5625C26.9438 7.875 26.4375 8.38125 26.4375 9V16.875C26.4375 21.5269 22.6519 25.3125 18 25.3125C13.3481 25.3125 9.5625 21.5269 9.5625 16.875V9C9.5625 8.38125 9.05625 7.875 8.4375 7.875H3.9375C3.31875 7.875 2.8125 8.38125 2.8125 9V16.875C2.8125 25.2506 9.62437 32.0625 18 32.0625C26.3756 32.0625 33.1875 25.2506 33.1875 16.875V9C33.1875 8.38125 32.6812 7.875 32.0625 7.875ZM30.9375 10.125V12.9375H28.6875V10.125H30.9375ZM7.3125 10.125V12.9375H5.0625V10.125H7.3125ZM18 29.8125C10.8675 29.8125 5.0625 24.0075 5.0625 16.875V15.1875H7.3125V16.875C7.3125 22.77 12.105 27.5625 18 27.5625C23.895 27.5625 28.6875 22.77 28.6875 16.875V15.1875H30.9375V16.875C30.9375 24.0075 25.1325 29.8125 18 29.8125Z" fill="#2C3FCE"/>
</svg>
