<svg width="37" height="36" viewBox="0 0 37 36" fill="none" xmlns="http://www.w3.org/2000/svg">
<g clip-path="url(#clip0_22_1412)">
<mask id="path-1-outside-1_22_1412" maskUnits="userSpaceOnUse" x="3" y="7" width="34" height="25" fill="black">
<rect fill="white" x="3" y="7" width="34" height="25"/>
<path d="M35.9481 18.1587L32.4687 9.18334C32.437 9.1014 32.3882 9.02714 32.3256 8.96547C32.2629 8.9038 32.188 8.85613 32.1055 8.8256C32.0231 8.79508 31.9352 8.7824 31.8475 8.78841C31.7598 8.79442 31.6744 8.81898 31.5969 8.86046L28.6603 10.4323C28.001 10.7752 27.3465 10.5374 26.2467 10.0879C24.7661 9.48264 22.7625 8.66585 20.1529 10.2743C18.2556 9.16045 16.6367 9.54208 15.3208 9.85301C14.318 10.09 13.5259 10.2771 12.7669 9.84983C12.7524 9.8417 12.7376 9.83411 12.7225 9.82709L8.88574 8.05701C8.73692 7.98843 8.56703 7.98144 8.41308 8.03756C8.25914 8.09368 8.1336 8.20836 8.06383 8.35662L4.05637 16.883C3.91142 17.1915 4.05482 17.589 4.38539 17.7226C4.4387 17.7456 7.96473 19.3327 8.30135 19.4635C8.56542 19.5659 8.64992 19.8822 8.7681 20.5296C8.82917 20.8647 8.8966 21.232 9.04388 21.5671L8.4775 22.6262C7.8817 23.7401 8.30329 25.1312 9.41721 25.7271C9.74744 25.9045 10.1164 25.9974 10.4913 25.9976C10.5258 25.9976 10.5604 25.9953 10.595 25.9937C10.4294 26.9419 10.8768 27.9318 11.7706 28.4099C12.4458 28.7712 13.3008 28.7637 13.9801 28.3816C13.9234 28.4135 14.3824 28.9948 14.4365 29.0495C14.6552 29.2699 14.9157 29.4444 15.2027 29.5628C15.7825 29.8023 16.4388 29.7943 17.0115 29.5385C16.8497 29.6108 17.7778 30.5845 17.8771 30.6516C18.4451 31.0359 19.1715 31.1447 19.8272 30.9461C20.3098 30.7998 20.721 30.5069 21.012 30.1084L21.7753 30.5282C22.1122 30.7141 22.4908 30.8115 22.8756 30.8114C23.6848 30.8114 24.4702 30.3825 24.8869 29.6249C25.1453 29.1551 25.2199 28.6326 25.1358 28.1401C25.8826 28.0838 26.5879 27.6643 26.9749 26.9606C27.1904 26.5689 27.2768 26.139 27.2495 25.7201C27.3395 25.731 27.43 25.7368 27.521 25.7368C27.7362 25.7368 27.953 25.7061 28.166 25.6444C28.755 25.4734 29.2413 25.0848 29.5353 24.5503C29.7812 24.1033 29.8597 23.6069 29.7922 23.1336C29.976 23.1269 30.1582 23.0982 30.3351 23.0482C30.932 22.8785 31.4247 22.4871 31.7223 21.9461C31.9716 21.4927 32.0478 20.9869 31.9732 20.5058L35.6128 18.954C35.7609 18.8909 35.8787 18.7726 35.9412 18.6242C36.0038 18.4758 36.0063 18.3089 35.9481 18.1587ZM10.0028 24.6323C9.49248 24.3593 9.29933 23.7221 9.57225 23.2118L10.6329 21.2286C10.8966 20.7355 11.5487 20.5283 12.0544 20.7986C12.5565 21.0663 12.752 21.7177 12.4839 22.2186L11.4213 24.2049C11.2898 24.4489 11.07 24.628 10.8016 24.7093C10.5321 24.7909 10.2483 24.7637 10.0028 24.6323ZM13.155 27.3922C12.8854 27.474 12.6017 27.4466 12.3561 27.3152C11.8458 27.0422 11.6527 26.405 11.9256 25.8947L13.3649 23.2041C13.633 22.703 14.2849 22.5106 14.7843 22.7776C15.281 23.0432 15.4832 23.694 15.2138 24.1976L13.7766 26.8848C13.6453 27.1304 13.4246 27.3105 13.155 27.3922ZM16.3759 28.4539C16.1064 28.5356 15.8227 28.5083 15.5771 28.3768C15.0667 28.1039 14.8736 27.4667 15.1465 26.9562L16.3089 24.7827C16.5631 24.2737 17.2383 24.0911 17.7301 24.3531C17.9744 24.4833 18.1541 24.7033 18.2359 24.9724C18.3182 25.2429 18.2911 25.5273 18.1597 25.7731L16.9975 27.9463C16.8662 28.1919 16.6455 28.3721 16.3759 28.4539ZM19.467 29.7579C19.1974 29.8396 18.9137 29.8122 18.668 29.6808C18.1578 29.4079 17.9647 28.7707 18.2376 28.2603L19.2545 26.3586C19.5224 25.8575 20.176 25.6613 20.6759 25.9287C21.1668 26.19 21.3866 26.8569 21.1055 27.3487L20.0885 29.2504C19.9572 29.496 19.7365 29.6762 19.467 29.7579ZM23.7989 29.0265C23.52 29.5336 22.8806 29.7191 22.3734 29.4403L21.6173 29.0245L22.2005 27.9342C22.3406 27.6728 22.4283 27.3865 22.4587 27.0914L23.3818 27.599L23.3838 27.6002C23.8909 27.881 24.0771 28.5208 23.7989 29.0265ZM30.6343 21.3478C30.4978 21.5959 30.2709 21.7758 29.9956 21.8539C29.7284 21.9301 29.4511 21.8983 29.2149 21.765L25.0736 19.4258C24.7749 19.2571 24.3963 19.3625 24.2278 19.661C24.0593 19.9594 24.1646 20.3382 24.463 20.5068L28.0283 22.5235C28.5356 22.809 28.7236 23.4498 28.4473 23.9519C28.3132 24.1959 28.0902 24.3735 27.8198 24.452C27.5491 24.5304 27.2657 24.4996 27.0219 24.3656L22.5109 21.8448C22.4398 21.8048 22.3616 21.7792 22.2807 21.7694C22.1997 21.7597 22.1176 21.766 22.0391 21.7879C21.9606 21.8099 21.8872 21.8471 21.8231 21.8974C21.7589 21.9478 21.7054 22.0103 21.6654 22.0813C21.6254 22.1524 21.5998 22.2306 21.59 22.3115C21.5803 22.3925 21.5865 22.4745 21.6085 22.553C21.6305 22.6316 21.6677 22.705 21.718 22.7691C21.7684 22.8332 21.8308 22.8868 21.9019 22.9268L25.4678 24.9338C25.9751 25.2193 26.1631 25.8601 25.8868 26.3622C25.608 26.8692 24.9685 27.0549 24.4614 26.776L21.9327 25.3778C21.7457 25.1548 21.5175 24.9699 21.2605 24.8333C20.9481 24.6669 20.5996 24.5728 20.2453 24.5636C19.9758 24.5566 19.7 24.6 19.4446 24.6864C19.3243 24.1779 18.8511 23.5435 18.3147 23.2577C17.7766 22.9699 16.9867 22.9654 16.4988 23.1108C16.4921 23.0857 16.4856 23.0606 16.478 23.0356C16.2995 22.4487 15.9053 21.9679 15.3689 21.6821C14.8987 21.4296 14.3547 21.3506 13.8321 21.4592C13.816 21.3228 13.7878 21.1881 13.748 21.0566C13.5695 20.4698 13.1753 19.9889 12.6389 19.7032C11.7336 19.2191 10.6451 19.4069 9.94921 20.0922C9.82095 19.4327 9.59669 18.6344 8.75049 18.306C8.41643 18.1762 6.59219 17.3541 5.61213 16.9125L5.44871 16.8389L8.92508 9.44252L12.1806 10.9443C13.3542 11.5931 14.4988 11.3228 15.6061 11.0611C16.7202 10.7979 17.7833 10.5477 19.0295 11.0914C18.7367 11.3377 18.4554 11.5974 18.1865 11.8695C17.061 13.007 15.6218 14.0812 13.9091 15.0624C13.8335 15.1057 13.7678 15.1644 13.7164 15.2348C13.665 15.3052 13.629 15.3856 13.6107 15.4708C13.5925 15.556 13.5923 15.6441 13.6103 15.7293C13.6283 15.8146 13.6641 15.8951 13.7153 15.9656C15.9851 19.0934 18.665 18.0086 20.8185 17.1369C22.235 16.5633 23.4585 16.0682 24.4351 16.6248L30.2121 19.9177C30.7197 20.2069 30.909 20.8485 30.6343 21.3478ZM31.4638 19.3734C31.2856 19.1583 31.0698 18.9773 30.8271 18.8391L25.05 15.5463C24.5376 15.2541 24.0104 15.1387 23.4757 15.1387C22.4457 15.1387 21.3875 15.5671 20.3527 15.9861C18.4212 16.768 16.731 17.4522 15.1556 15.768C16.6927 14.832 18.007 13.8163 19.0691 12.7429C19.5383 12.2688 20.0148 11.8635 20.485 11.5384C22.7253 9.98982 24.2767 10.6239 25.7769 11.237C26.8854 11.6902 28.0315 12.1587 29.2398 11.5302L31.5646 10.2859L34.5733 18.0475L31.4638 19.3734Z"/>
</mask>
<path d="M35.9481 18.1587L32.4687 9.18334C32.437 9.1014 32.3882 9.02714 32.3256 8.96547C32.2629 8.9038 32.188 8.85613 32.1055 8.8256C32.0231 8.79508 31.9352 8.7824 31.8475 8.78841C31.7598 8.79442 31.6744 8.81898 31.5969 8.86046L28.6603 10.4323C28.001 10.7752 27.3465 10.5374 26.2467 10.0879C24.7661 9.48264 22.7625 8.66585 20.1529 10.2743C18.2556 9.16045 16.6367 9.54208 15.3208 9.85301C14.318 10.09 13.5259 10.2771 12.7669 9.84983C12.7524 9.8417 12.7376 9.83411 12.7225 9.82709L8.88574 8.05701C8.73692 7.98843 8.56703 7.98144 8.41308 8.03756C8.25914 8.09368 8.1336 8.20836 8.06383 8.35662L4.05637 16.883C3.91142 17.1915 4.05482 17.589 4.38539 17.7226C4.4387 17.7456 7.96473 19.3327 8.30135 19.4635C8.56542 19.5659 8.64992 19.8822 8.7681 20.5296C8.82917 20.8647 8.8966 21.232 9.04388 21.5671L8.4775 22.6262C7.8817 23.7401 8.30329 25.1312 9.41721 25.7271C9.74744 25.9045 10.1164 25.9974 10.4913 25.9976C10.5258 25.9976 10.5604 25.9953 10.595 25.9937C10.4294 26.9419 10.8768 27.9318 11.7706 28.4099C12.4458 28.7712 13.3008 28.7637 13.9801 28.3816C13.9234 28.4135 14.3824 28.9948 14.4365 29.0495C14.6552 29.2699 14.9157 29.4444 15.2027 29.5628C15.7825 29.8023 16.4388 29.7943 17.0115 29.5385C16.8497 29.6108 17.7778 30.5845 17.8771 30.6516C18.4451 31.0359 19.1715 31.1447 19.8272 30.9461C20.3098 30.7998 20.721 30.5069 21.012 30.1084L21.7753 30.5282C22.1122 30.7141 22.4908 30.8115 22.8756 30.8114C23.6848 30.8114 24.4702 30.3825 24.8869 29.6249C25.1453 29.1551 25.2199 28.6326 25.1358 28.1401C25.8826 28.0838 26.5879 27.6643 26.9749 26.9606C27.1904 26.5689 27.2768 26.139 27.2495 25.7201C27.3395 25.731 27.43 25.7368 27.521 25.7368C27.7362 25.7368 27.953 25.7061 28.166 25.6444C28.755 25.4734 29.2413 25.0848 29.5353 24.5503C29.7812 24.1033 29.8597 23.6069 29.7922 23.1336C29.976 23.1269 30.1582 23.0982 30.3351 23.0482C30.932 22.8785 31.4247 22.4871 31.7223 21.9461C31.9716 21.4927 32.0478 20.9869 31.9732 20.5058L35.6128 18.954C35.7609 18.8909 35.8787 18.7726 35.9412 18.6242C36.0038 18.4758 36.0063 18.3089 35.9481 18.1587ZM10.0028 24.6323C9.49248 24.3593 9.29933 23.7221 9.57225 23.2118L10.6329 21.2286C10.8966 20.7355 11.5487 20.5283 12.0544 20.7986C12.5565 21.0663 12.752 21.7177 12.4839 22.2186L11.4213 24.2049C11.2898 24.4489 11.07 24.628 10.8016 24.7093C10.5321 24.7909 10.2483 24.7637 10.0028 24.6323ZM13.155 27.3922C12.8854 27.474 12.6017 27.4466 12.3561 27.3152C11.8458 27.0422 11.6527 26.405 11.9256 25.8947L13.3649 23.2041C13.633 22.703 14.2849 22.5106 14.7843 22.7776C15.281 23.0432 15.4832 23.694 15.2138 24.1976L13.7766 26.8848C13.6453 27.1304 13.4246 27.3105 13.155 27.3922ZM16.3759 28.4539C16.1064 28.5356 15.8227 28.5083 15.5771 28.3768C15.0667 28.1039 14.8736 27.4667 15.1465 26.9562L16.3089 24.7827C16.5631 24.2737 17.2383 24.0911 17.7301 24.3531C17.9744 24.4833 18.1541 24.7033 18.2359 24.9724C18.3182 25.2429 18.2911 25.5273 18.1597 25.7731L16.9975 27.9463C16.8662 28.1919 16.6455 28.3721 16.3759 28.4539ZM19.467 29.7579C19.1974 29.8396 18.9137 29.8122 18.668 29.6808C18.1578 29.4079 17.9647 28.7707 18.2376 28.2603L19.2545 26.3586C19.5224 25.8575 20.176 25.6613 20.6759 25.9287C21.1668 26.19 21.3866 26.8569 21.1055 27.3487L20.0885 29.2504C19.9572 29.496 19.7365 29.6762 19.467 29.7579ZM23.7989 29.0265C23.52 29.5336 22.8806 29.7191 22.3734 29.4403L21.6173 29.0245L22.2005 27.9342C22.3406 27.6728 22.4283 27.3865 22.4587 27.0914L23.3818 27.599L23.3838 27.6002C23.8909 27.881 24.0771 28.5208 23.7989 29.0265ZM30.6343 21.3478C30.4978 21.5959 30.2709 21.7758 29.9956 21.8539C29.7284 21.9301 29.4511 21.8983 29.2149 21.765L25.0736 19.4258C24.7749 19.2571 24.3963 19.3625 24.2278 19.661C24.0593 19.9594 24.1646 20.3382 24.463 20.5068L28.0283 22.5235C28.5356 22.809 28.7236 23.4498 28.4473 23.9519C28.3132 24.1959 28.0902 24.3735 27.8198 24.452C27.5491 24.5304 27.2657 24.4996 27.0219 24.3656L22.5109 21.8448C22.4398 21.8048 22.3616 21.7792 22.2807 21.7694C22.1997 21.7597 22.1176 21.766 22.0391 21.7879C21.9606 21.8099 21.8872 21.8471 21.8231 21.8974C21.7589 21.9478 21.7054 22.0103 21.6654 22.0813C21.6254 22.1524 21.5998 22.2306 21.59 22.3115C21.5803 22.3925 21.5865 22.4745 21.6085 22.553C21.6305 22.6316 21.6677 22.705 21.718 22.7691C21.7684 22.8332 21.8308 22.8868 21.9019 22.9268L25.4678 24.9338C25.9751 25.2193 26.1631 25.8601 25.8868 26.3622C25.608 26.8692 24.9685 27.0549 24.4614 26.776L21.9327 25.3778C21.7457 25.1548 21.5175 24.9699 21.2605 24.8333C20.9481 24.6669 20.5996 24.5728 20.2453 24.5636C19.9758 24.5566 19.7 24.6 19.4446 24.6864C19.3243 24.1779 18.8511 23.5435 18.3147 23.2577C17.7766 22.9699 16.9867 22.9654 16.4988 23.1108C16.4921 23.0857 16.4856 23.0606 16.478 23.0356C16.2995 22.4487 15.9053 21.9679 15.3689 21.6821C14.8987 21.4296 14.3547 21.3506 13.8321 21.4592C13.816 21.3228 13.7878 21.1881 13.748 21.0566C13.5695 20.4698 13.1753 19.9889 12.6389 19.7032C11.7336 19.2191 10.6451 19.4069 9.94921 20.0922C9.82095 19.4327 9.59669 18.6344 8.75049 18.306C8.41643 18.1762 6.59219 17.3541 5.61213 16.9125L5.44871 16.8389L8.92508 9.44252L12.1806 10.9443C13.3542 11.5931 14.4988 11.3228 15.6061 11.0611C16.7202 10.7979 17.7833 10.5477 19.0295 11.0914C18.7367 11.3377 18.4554 11.5974 18.1865 11.8695C17.061 13.007 15.6218 14.0812 13.9091 15.0624C13.8335 15.1057 13.7678 15.1644 13.7164 15.2348C13.665 15.3052 13.629 15.3856 13.6107 15.4708C13.5925 15.556 13.5923 15.6441 13.6103 15.7293C13.6283 15.8146 13.6641 15.8951 13.7153 15.9656C15.9851 19.0934 18.665 18.0086 20.8185 17.1369C22.235 16.5633 23.4585 16.0682 24.4351 16.6248L30.2121 19.9177C30.7197 20.2069 30.909 20.8485 30.6343 21.3478ZM31.4638 19.3734C31.2856 19.1583 31.0698 18.9773 30.8271 18.8391L25.05 15.5463C24.5376 15.2541 24.0104 15.1387 23.4757 15.1387C22.4457 15.1387 21.3875 15.5671 20.3527 15.9861C18.4212 16.768 16.731 17.4522 15.1556 15.768C16.6927 14.832 18.007 13.8163 19.0691 12.7429C19.5383 12.2688 20.0148 11.8635 20.485 11.5384C22.7253 9.98982 24.2767 10.6239 25.7769 11.237C26.8854 11.6902 28.0315 12.1587 29.2398 11.5302L31.5646 10.2859L34.5733 18.0475L31.4638 19.3734Z" fill="#2C3FCE"/>
<path d="M35.9481 18.1587L32.4687 9.18334C32.437 9.1014 32.3882 9.02714 32.3256 8.96547C32.2629 8.9038 32.188 8.85613 32.1055 8.8256C32.0231 8.79508 31.9352 8.7824 31.8475 8.78841C31.7598 8.79442 31.6744 8.81898 31.5969 8.86046L28.6603 10.4323C28.001 10.7752 27.3465 10.5374 26.2467 10.0879C24.7661 9.48264 22.7625 8.66585 20.1529 10.2743C18.2556 9.16045 16.6367 9.54208 15.3208 9.85301C14.318 10.09 13.5259 10.2771 12.7669 9.84983C12.7524 9.8417 12.7376 9.83411 12.7225 9.82709L8.88574 8.05701C8.73692 7.98843 8.56703 7.98144 8.41308 8.03756C8.25914 8.09368 8.1336 8.20836 8.06383 8.35662L4.05637 16.883C3.91142 17.1915 4.05482 17.589 4.38539 17.7226C4.4387 17.7456 7.96473 19.3327 8.30135 19.4635C8.56542 19.5659 8.64992 19.8822 8.7681 20.5296C8.82917 20.8647 8.8966 21.232 9.04388 21.5671L8.4775 22.6262C7.8817 23.7401 8.30329 25.1312 9.41721 25.7271C9.74744 25.9045 10.1164 25.9974 10.4913 25.9976C10.5258 25.9976 10.5604 25.9953 10.595 25.9937C10.4294 26.9419 10.8768 27.9318 11.7706 28.4099C12.4458 28.7712 13.3008 28.7637 13.9801 28.3816C13.9234 28.4135 14.3824 28.9948 14.4365 29.0495C14.6552 29.2699 14.9157 29.4444 15.2027 29.5628C15.7825 29.8023 16.4388 29.7943 17.0115 29.5385C16.8497 29.6108 17.7778 30.5845 17.8771 30.6516C18.4451 31.0359 19.1715 31.1447 19.8272 30.9461C20.3098 30.7998 20.721 30.5069 21.012 30.1084L21.7753 30.5282C22.1122 30.7141 22.4908 30.8115 22.8756 30.8114C23.6848 30.8114 24.4702 30.3825 24.8869 29.6249C25.1453 29.1551 25.2199 28.6326 25.1358 28.1401C25.8826 28.0838 26.5879 27.6643 26.9749 26.9606C27.1904 26.5689 27.2768 26.139 27.2495 25.7201C27.3395 25.731 27.43 25.7368 27.521 25.7368C27.7362 25.7368 27.953 25.7061 28.166 25.6444C28.755 25.4734 29.2413 25.0848 29.5353 24.5503C29.7812 24.1033 29.8597 23.6069 29.7922 23.1336C29.976 23.1269 30.1582 23.0982 30.3351 23.0482C30.932 22.8785 31.4247 22.4871 31.7223 21.9461C31.9716 21.4927 32.0478 20.9869 31.9732 20.5058L35.6128 18.954C35.7609 18.8909 35.8787 18.7726 35.9412 18.6242C36.0038 18.4758 36.0063 18.3089 35.9481 18.1587ZM10.0028 24.6323C9.49248 24.3593 9.29933 23.7221 9.57225 23.2118L10.6329 21.2286C10.8966 20.7355 11.5487 20.5283 12.0544 20.7986C12.5565 21.0663 12.752 21.7177 12.4839 22.2186L11.4213 24.2049C11.2898 24.4489 11.07 24.628 10.8016 24.7093C10.5321 24.7909 10.2483 24.7637 10.0028 24.6323ZM13.155 27.3922C12.8854 27.474 12.6017 27.4466 12.3561 27.3152C11.8458 27.0422 11.6527 26.405 11.9256 25.8947L13.3649 23.2041C13.633 22.703 14.2849 22.5106 14.7843 22.7776C15.281 23.0432 15.4832 23.694 15.2138 24.1976L13.7766 26.8848C13.6453 27.1304 13.4246 27.3105 13.155 27.3922ZM16.3759 28.4539C16.1064 28.5356 15.8227 28.5083 15.5771 28.3768C15.0667 28.1039 14.8736 27.4667 15.1465 26.9562L16.3089 24.7827C16.5631 24.2737 17.2383 24.0911 17.7301 24.3531C17.9744 24.4833 18.1541 24.7033 18.2359 24.9724C18.3182 25.2429 18.2911 25.5273 18.1597 25.7731L16.9975 27.9463C16.8662 28.1919 16.6455 28.3721 16.3759 28.4539ZM19.467 29.7579C19.1974 29.8396 18.9137 29.8122 18.668 29.6808C18.1578 29.4079 17.9647 28.7707 18.2376 28.2603L19.2545 26.3586C19.5224 25.8575 20.176 25.6613 20.6759 25.9287C21.1668 26.19 21.3866 26.8569 21.1055 27.3487L20.0885 29.2504C19.9572 29.496 19.7365 29.6762 19.467 29.7579ZM23.7989 29.0265C23.52 29.5336 22.8806 29.7191 22.3734 29.4403L21.6173 29.0245L22.2005 27.9342C22.3406 27.6728 22.4283 27.3865 22.4587 27.0914L23.3818 27.599L23.3838 27.6002C23.8909 27.881 24.0771 28.5208 23.7989 29.0265ZM30.6343 21.3478C30.4978 21.5959 30.2709 21.7758 29.9956 21.8539C29.7284 21.9301 29.4511 21.8983 29.2149 21.765L25.0736 19.4258C24.7749 19.2571 24.3963 19.3625 24.2278 19.661C24.0593 19.9594 24.1646 20.3382 24.463 20.5068L28.0283 22.5235C28.5356 22.809 28.7236 23.4498 28.4473 23.9519C28.3132 24.1959 28.0902 24.3735 27.8198 24.452C27.5491 24.5304 27.2657 24.4996 27.0219 24.3656L22.5109 21.8448C22.4398 21.8048 22.3616 21.7792 22.2807 21.7694C22.1997 21.7597 22.1176 21.766 22.0391 21.7879C21.9606 21.8099 21.8872 21.8471 21.8231 21.8974C21.7589 21.9478 21.7054 22.0103 21.6654 22.0813C21.6254 22.1524 21.5998 22.2306 21.59 22.3115C21.5803 22.3925 21.5865 22.4745 21.6085 22.553C21.6305 22.6316 21.6677 22.705 21.718 22.7691C21.7684 22.8332 21.8308 22.8868 21.9019 22.9268L25.4678 24.9338C25.9751 25.2193 26.1631 25.8601 25.8868 26.3622C25.608 26.8692 24.9685 27.0549 24.4614 26.776L21.9327 25.3778C21.7457 25.1548 21.5175 24.9699 21.2605 24.8333C20.9481 24.6669 20.5996 24.5728 20.2453 24.5636C19.9758 24.5566 19.7 24.6 19.4446 24.6864C19.3243 24.1779 18.8511 23.5435 18.3147 23.2577C17.7766 22.9699 16.9867 22.9654 16.4988 23.1108C16.4921 23.0857 16.4856 23.0606 16.478 23.0356C16.2995 22.4487 15.9053 21.9679 15.3689 21.6821C14.8987 21.4296 14.3547 21.3506 13.8321 21.4592C13.816 21.3228 13.7878 21.1881 13.748 21.0566C13.5695 20.4698 13.1753 19.9889 12.6389 19.7032C11.7336 19.2191 10.6451 19.4069 9.94921 20.0922C9.82095 19.4327 9.59669 18.6344 8.75049 18.306C8.41643 18.1762 6.59219 17.3541 5.61213 16.9125L5.44871 16.8389L8.92508 9.44252L12.1806 10.9443C13.3542 11.5931 14.4988 11.3228 15.6061 11.0611C16.7202 10.7979 17.7833 10.5477 19.0295 11.0914C18.7367 11.3377 18.4554 11.5974 18.1865 11.8695C17.061 13.007 15.6218 14.0812 13.9091 15.0624C13.8335 15.1057 13.7678 15.1644 13.7164 15.2348C13.665 15.3052 13.629 15.3856 13.6107 15.4708C13.5925 15.556 13.5923 15.6441 13.6103 15.7293C13.6283 15.8146 13.6641 15.8951 13.7153 15.9656C15.9851 19.0934 18.665 18.0086 20.8185 17.1369C22.235 16.5633 23.4585 16.0682 24.4351 16.6248L30.2121 19.9177C30.7197 20.2069 30.909 20.8485 30.6343 21.3478ZM31.4638 19.3734C31.2856 19.1583 31.0698 18.9773 30.8271 18.8391L25.05 15.5463C24.5376 15.2541 24.0104 15.1387 23.4757 15.1387C22.4457 15.1387 21.3875 15.5671 20.3527 15.9861C18.4212 16.768 16.731 17.4522 15.1556 15.768C16.6927 14.832 18.007 13.8163 19.0691 12.7429C19.5383 12.2688 20.0148 11.8635 20.485 11.5384C22.7253 9.98982 24.2767 10.6239 25.7769 11.237C26.8854 11.6902 28.0315 12.1587 29.2398 11.5302L31.5646 10.2859L34.5733 18.0475L31.4638 19.3734Z" stroke="#2C3FCE" stroke-width="0.4" mask="url(#path-1-outside-1_22_1412)"/>
</g>
<defs>
<clipPath id="clip0_22_1412">
<rect width="36" height="36" fill="white" transform="translate(0.5)"/>
</clipPath>
</defs>
</svg>
