<svg width="36" height="36" viewBox="0 0 36 36" fill="none" xmlns="http://www.w3.org/2000/svg">
<g clip-path="url(#clip0_10_115)">
<path d="M30 15.0001H6C5.20435 15.0001 4.44129 15.3162 3.87868 15.8788C3.31607 16.4414 3 17.2045 3 18.0001V33.0001C3 33.7958 3.31607 34.5588 3.87868 35.1215C4.44129 35.6841 5.20435 36.0001 6 36.0001H30C30.7956 36.0001 31.5587 35.6841 32.1213 35.1215C32.6839 34.5588 33 33.7958 33 33.0001V18.0001C33 17.2045 32.6839 16.4414 32.1213 15.8788C31.5587 15.3162 30.7956 15.0001 30 15.0001ZM22.5 25.5001L31.41 17.5051C31.4666 17.6642 31.497 17.8314 31.5 18.0001C31.5 34.2601 31.5 33.1201 31.41 33.4951L22.5 25.5001ZM30 16.5001C30.405 16.5001 31.5 15.3976 18 27.4951C4.5 15.3826 5.595 16.5001 6 16.5001H30ZM4.59 33.4951C4.5 33.1201 4.5 34.3501 4.5 18.0001C4.50302 17.8314 4.53342 17.6642 4.59 17.5051L13.5 25.5001L4.59 33.4951ZM6 34.5001C5.5875 34.5001 4.845 35.2501 14.6475 26.5051C17.6175 29.1676 17.595 29.2501 18 29.2501C18.405 29.2501 18.225 29.3026 21.3525 26.5051C31.1925 35.3101 30.4125 34.5001 30 34.5001H6ZM15.5325 4.28264L17.25 2.55764V9.75014C17.25 9.94905 17.329 10.1398 17.4697 10.2805C17.6103 10.4211 17.8011 10.5001 18 10.5001C18.1989 10.5001 18.3897 10.4211 18.5303 10.2805C18.671 10.1398 18.75 9.94905 18.75 9.75014V2.55764L20.4675 4.28264C20.6087 4.42387 20.8003 4.50321 21 4.50321C21.1997 4.50321 21.3913 4.42387 21.5325 4.28264C21.6737 4.14141 21.7531 3.94986 21.7531 3.75014C21.7531 3.55041 21.6737 3.35887 21.5325 3.21764C18.36 0.0526382 18.33 -0.194862 17.715 0.0601381C17.52 0.142638 17.715 -0.0448619 14.4675 3.21764C14.3263 3.35887 14.2469 3.55041 14.2469 3.75014C14.2469 3.94986 14.3263 4.14141 14.4675 4.28264C14.6087 4.42387 14.8003 4.50321 15 4.50321C15.1997 4.50321 15.3913 4.42387 15.5325 4.28264ZM6 9.75014C6 9.94905 6.07902 10.1398 6.21967 10.2805C6.36032 10.4211 6.55109 10.5001 6.75 10.5001C6.94891 10.5001 7.13968 10.4211 7.28033 10.2805C7.42098 10.1398 7.5 9.94905 7.5 9.75014V7.05764L12.57 12.1276C12.7135 12.2505 12.898 12.3147 13.0868 12.3074C13.2755 12.3001 13.4546 12.2219 13.5882 12.0883C13.7217 11.9547 13.8 11.7757 13.8073 11.5869C13.8146 11.3982 13.7504 11.2136 13.6275 11.0701L8.565 6.00014H11.25C11.4489 6.00014 11.6397 5.92112 11.7803 5.78047C11.921 5.63982 12 5.44905 12 5.25014C12 5.05123 11.921 4.86046 11.7803 4.71981C11.6397 4.57916 11.4489 4.50014 11.25 4.50014H6.8175C6.70823 4.48987 6.59804 4.50371 6.49471 4.54067C6.39137 4.57764 6.29741 4.63683 6.21944 4.71408C6.14148 4.79133 6.08142 4.88474 6.04351 4.98773C6.00559 5.09072 5.99074 5.20078 6 5.31014V9.75014ZM22.905 12.3451C23.34 12.3451 23.04 12.5176 28.5 7.09514V9.75014C28.5 9.94905 28.579 10.1398 28.7197 10.2805C28.8603 10.4211 29.0511 10.5001 29.25 10.5001C29.4489 10.5001 29.6397 10.4211 29.7803 10.2805C29.921 10.1398 30 9.94905 30 9.75014V5.31014C30.0093 5.20078 29.9944 5.09072 29.9565 4.98773C29.9186 4.88474 29.8585 4.79133 29.7806 4.71408C29.7026 4.63683 29.6086 4.57764 29.5053 4.54067C29.402 4.50371 29.2918 4.48987 29.1825 4.50014H24.75C24.5511 4.50014 24.3603 4.57916 24.2197 4.71981C24.079 4.86046 24 5.05123 24 5.25014C24 5.44905 24.079 5.63982 24.2197 5.78047C24.3603 5.92112 24.5511 6.00014 24.75 6.00014H27.435L22.3725 11.0701C22.2693 11.1754 22.1994 11.3088 22.1716 11.4536C22.1438 11.5984 22.1592 11.7481 22.216 11.8842C22.2729 12.0202 22.3685 12.1365 22.491 12.2185C22.6136 12.3005 22.7576 12.3445 22.905 12.3451Z" fill="#2C3FCE"/>
</g>
<defs>
<clipPath id="clip0_10_115">
<rect width="36" height="36" fill="white"/>
</clipPath>
</defs>
</svg>
