<svg width="36" height="36" viewBox="0 0 36 36" fill="none" xmlns="http://www.w3.org/2000/svg">
<g clip-path="url(#clip0_10_231)">
<path d="M33 10.38L30.885 8.265L26.61 13.08C23.52 9.6 19.245 7.5 14.415 7.5C10.08 7.5 6.105 9.24 3 12L5.13 14.13C7.68 11.895 10.905 10.5 14.415 10.5C18.525 10.5 22.05 12.39 24.57 15.36L20.25 20.22L14.25 14.22L3 25.485L5.25 27.735L14.25 18.72L20.25 24.72L26.325 17.895C27.45 19.92 28.2 22.245 28.485 24.72H31.5C31.17 21.27 30.075 18.135 28.44 15.51L33 10.38Z" fill="#2C3FCE"/>
</g>
<defs>
<clipPath id="clip0_10_231">
<rect width="36" height="36" fill="white"/>
</clipPath>
</defs>
</svg>
