<svg width="60" height="61" viewBox="0 0 60 61" fill="none" xmlns="http://www.w3.org/2000/svg">
<g clip-path="url(#clip0_19_590)">
<path d="M56.875 36.395C56.875 28.755 51.3225 22.4275 44.045 21.3125V14.0925C46.0825 13.225 47.3275 11.3025 47.3275 9.065C47.3275 6.0075 44.8925 3.4525 41.855 3.4525C38.8175 3.4525 36.4175 6.0075 36.4175 9.065C36.4175 11.3025 37.665 13.225 39.7 14.0925V21.265C37.9617 21.5008 36.2786 22.0407 34.7275 22.86C31.5125 20.41 21.0475 12.8175 15.065 8.235C15.2141 7.70858 15.2923 7.16461 15.2975 6.6175C15.3001 4.99812 14.6596 3.44398 13.5166 2.2968C12.3736 1.14961 10.8219 0.503312 9.20249 0.5C7.58574 0.506618 6.03769 1.15454 4.89822 2.30151C3.75875 3.44847 3.121 5.00074 3.12499 6.6175C3.11835 8.23622 3.75484 9.79131 4.89453 10.9408C6.03421 12.0904 7.58377 12.7402 9.20249 12.7475C10.3425 12.7475 11.4025 12.4075 12.3225 11.8575L31.3225 25.3L31.3175 25.2975C29.8136 26.7251 28.6167 28.4445 27.8 30.3504C26.9833 32.2564 26.5639 34.3089 26.5675 36.3825C26.5675 39.815 27.6975 42.98 29.595 45.5225L23.8325 51.3575C23.3106 51.1649 22.7588 51.0659 22.2025 51.065C20.945 51.065 19.7675 51.5575 18.885 52.4475C18 53.3375 17.5125 54.5325 17.5125 55.8C17.5125 57.0675 18.0025 58.25 18.885 59.14C19.77 60.03 20.9575 60.5 22.205 60.5C23.4625 60.5 24.64 60.0425 25.535 59.14C26.1437 58.5282 26.573 57.7611 26.7762 56.9223C26.9794 56.0835 26.9487 55.2051 26.6875 54.3825L32.51 48.5C35.1508 50.5492 38.3999 51.6586 41.7425 51.6525C50.11 51.6525 56.875 44.82 56.875 36.395ZM41.7375 44.4675C37.3025 44.4675 33.705 40.8475 33.705 36.3825C33.705 31.9175 37.3 28.2975 41.7375 28.2975C46.1725 28.2975 49.77 31.9175 49.77 36.3825C49.77 40.8475 46.1725 44.4675 41.7375 44.4675Z" fill="#F8761F"/>
</g>
<defs>
<clipPath id="clip0_19_590">
<rect width="60" height="60" fill="white" transform="translate(0 0.5)"/>
</clipPath>
</defs>
</svg>
