<svg width="36" height="36" viewBox="0 0 36 36" fill="none" xmlns="http://www.w3.org/2000/svg">
<path fill-rule="evenodd" clip-rule="evenodd" d="M30.9956 5.40021H27.8996V3.92421C27.8996 3.61821 27.6476 3.36621 27.3416 3.36621H26.1896C25.8836 3.36621 25.6316 3.61821 25.6316 3.92421V5.40021H18.9896V3.92421C18.9896 3.61821 18.7376 3.36621 18.4316 3.36621H17.2796C16.9736 3.36621 16.7216 3.61821 16.7216 3.92421V5.40021H10.0796V3.92421C10.0796 3.61821 9.82756 3.36621 9.52156 3.36621H8.36956C8.06356 3.36621 7.81156 3.61821 7.81156 3.92421V5.40021H4.89556C3.40156 5.40021 2.19556 6.60621 2.19556 8.10021V29.9162C2.19556 31.4102 3.40156 32.6162 4.89556 32.6162H30.9956C32.4896 32.6162 33.6956 31.4102 33.6956 29.9162V8.10021C33.6956 6.60621 32.4896 5.40021 30.9956 5.40021ZM4.94956 7.65021H7.86556V9.12621C7.86556 9.43221 8.11756 9.68421 8.42356 9.68421H9.57556C9.88156 9.68421 10.1336 9.43221 10.1336 9.12621V7.65021H16.7756V9.12621C16.7756 9.43221 17.0276 9.68421 17.3336 9.68421H18.4856C18.7916 9.68421 19.0436 9.43221 19.0436 9.12621V7.65021H25.6856V9.12621C25.6856 9.43221 25.9376 9.68421 26.2436 9.68421H27.3956C27.7016 9.68421 27.9536 9.43221 27.9536 9.12621V7.65021H31.1036C31.3556 7.65021 31.5536 7.84821 31.5536 8.10021V12.3842H4.49956V8.10021C4.49956 7.84821 4.69756 7.65021 4.94956 7.65021ZM4.94956 30.3662H31.0496C31.3016 30.3662 31.4996 30.1682 31.4996 29.9162V14.6162H4.49956V29.9162C4.49956 30.1682 4.69756 30.3662 4.94956 30.3662Z" fill="#2C3FCE"/>
<path d="M23.4356 16.7402C23.3096 16.6142 23.1116 16.6142 22.9856 16.7402L15.5696 24.1562L13.0136 21.6002C12.8876 21.4742 12.6896 21.4742 12.5636 21.6002L11.4116 22.7522C11.2856 22.8782 11.2856 23.0762 11.4116 23.2022L15.3176 27.1082C15.3176 27.1082 15.4796 27.1982 15.5696 27.1802C15.6596 27.1802 15.7496 27.1802 15.8216 27.1082L24.5696 18.3602C24.6956 18.2342 24.6956 18.0362 24.5696 17.9102L23.4176 16.7582L23.4356 16.7402Z" fill="#2C3FCE"/>
</svg>
