<svg width="36" height="36" viewBox="0 0 36 36" fill="none" xmlns="http://www.w3.org/2000/svg">
<rect width="36" height="36" fill="#1E1E1E"/>
<path d="M-838 -3268C-838 -3269.1 -837.105 -3270 -836 -3270H2587C2588.1 -3270 2589 -3269.1 2589 -3268V2960C2589 2961.1 2588.1 2962 2587 2962H-836C-837.105 2962 -838 2961.1 -838 2960V-3268Z" fill="#404040"/>
<path d="M-836 -3269H2587V-3271H-836V-3269ZM2588 -3268V2960H2590V-3268H2588ZM2587 2961H-836V2963H2587V2961ZM-837 2960V-3268H-839V2960H-837ZM-836 2961C-836.552 2961 -837 2960.55 -837 2960H-839C-839 2961.66 -837.657 2963 -836 2963V2961ZM2588 2960C2588 2960.55 2587.55 2961 2587 2961V2963C2588.66 2963 2590 2961.66 2590 2960H2588ZM2587 -3269C2587.55 -3269 2588 -3268.55 2588 -3268H2590C2590 -3269.66 2588.66 -3271 2587 -3271V-3269ZM-836 -3271C-837.657 -3271 -839 -3269.66 -839 -3268H-837C-837 -3268.55 -836.552 -3269 -836 -3269V-3271Z" fill="white" fill-opacity="0.1"/>
<g clip-path="url(#clip0_0_1)">
<rect width="1440" height="6032" transform="translate(-738 -3170)" fill="white"/>
<rect x="-35.5" y="-35.5" width="619" height="231" rx="19.5" stroke="#EBE9E9"/>
<rect x="-12" y="-12" width="60" height="60" rx="12" fill="#F5F6FF"/>
<mask id="path-5-inside-1_0_1" fill="white">
<path d="M18 19.5C18.8284 19.5 19.5 18.8284 19.5 18C19.5 17.1716 18.8284 16.5 18 16.5C17.1716 16.5 16.5 17.1716 16.5 18C16.5 18.8284 17.1716 19.5 18 19.5Z"/>
</mask>
<path d="M18 19.5C18.8284 19.5 19.5 18.8284 19.5 18C19.5 17.1716 18.8284 16.5 18 16.5C17.1716 16.5 16.5 17.1716 16.5 18C16.5 18.8284 17.1716 19.5 18 19.5Z" fill="#2C3FCE" stroke="white" mask="url(#path-5-inside-1_0_1)"/>
<mask id="path-6-inside-2_0_1" fill="white">
<path d="M24 19.5C24.8284 19.5 25.5 18.8284 25.5 18C25.5 17.1716 24.8284 16.5 24 16.5C23.1716 16.5 22.5 17.1716 22.5 18C22.5 18.8284 23.1716 19.5 24 19.5Z"/>
</mask>
<path d="M24 19.5C24.8284 19.5 25.5 18.8284 25.5 18C25.5 17.1716 24.8284 16.5 24 16.5C23.1716 16.5 22.5 17.1716 22.5 18C22.5 18.8284 23.1716 19.5 24 19.5Z" fill="#2C3FCE" stroke="white" mask="url(#path-6-inside-2_0_1)"/>
<mask id="path-7-inside-3_0_1" fill="white">
<path d="M12 19.5C12.8284 19.5 13.5 18.8284 13.5 18C13.5 17.1716 12.8284 16.5 12 16.5C11.1716 16.5 10.5 17.1716 10.5 18C10.5 18.8284 11.1716 19.5 12 19.5Z"/>
</mask>
<path d="M12 19.5C12.8284 19.5 13.5 18.8284 13.5 18C13.5 17.1716 12.8284 16.5 12 16.5C11.1716 16.5 10.5 17.1716 10.5 18C10.5 18.8284 11.1716 19.5 12 19.5Z" fill="#2C3FCE" stroke="white" mask="url(#path-7-inside-3_0_1)"/>
<mask id="path-8-inside-4_0_1" fill="white">
<path d="M28.605 7.39479C26.1438 4.91754 22.8955 3.37661 19.4199 3.03765C15.9444 2.6987 12.4595 3.58296 9.56607 5.53799C6.67263 7.49302 4.55195 10.3963 3.56964 13.7473C2.58733 17.0983 2.80496 20.687 4.18499 23.8948C4.32883 24.1929 4.37602 24.5285 4.31999 24.8548L2.99999 31.1998C2.94914 31.4431 2.95952 31.6951 3.03022 31.9334C3.10091 32.1717 3.22969 32.3886 3.40499 32.5648C3.5487 32.7075 3.71981 32.8195 3.908 32.8943C4.09619 32.9691 4.29756 33.0049 4.49999 32.9998H4.79999L11.22 31.7098C11.5463 31.6706 11.8772 31.7171 12.18 31.8448C15.3877 33.2248 18.9765 33.4425 22.3275 32.4601C25.6785 31.4778 28.5818 29.3572 30.5368 26.4637C32.4918 23.5703 33.3761 20.0854 33.0371 16.6099C32.6982 13.1343 31.1572 9.88597 28.68 7.42479L28.605 7.39479ZM29.85 19.9348C29.5567 21.7258 28.861 23.4269 27.8153 24.9101C26.7696 26.3934 25.4011 27.6202 23.8127 28.4981C22.2244 29.376 20.4576 29.8822 18.6453 29.9786C16.8331 30.0751 15.0225 29.7592 13.35 29.0548C12.7568 28.8025 12.1196 28.6699 11.475 28.6648C11.1934 28.6668 10.9125 28.6918 10.635 28.7398L6.40499 29.5948L7.25999 25.3648C7.43028 24.4487 7.32051 23.5026 6.94499 22.6498C6.24058 20.9772 5.9247 19.1667 6.02113 17.3545C6.11756 15.5422 6.62379 13.7754 7.50171 12.1871C8.37963 10.5987 9.60638 9.23019 11.0896 8.18446C12.5729 7.13874 14.274 6.44306 16.065 6.14979C17.9449 5.84126 19.8713 5.98475 21.6847 6.56838C23.4982 7.15201 25.1466 8.15901 26.4937 9.50609C27.8408 10.8532 28.8478 12.5016 29.4314 14.3151C30.015 16.1285 30.1585 18.0549 29.85 19.9348Z"/>
</mask>
<path d="M28.605 7.39479C26.1438 4.91754 22.8955 3.37661 19.4199 3.03765C15.9444 2.6987 12.4595 3.58296 9.56607 5.53799C6.67263 7.49302 4.55195 10.3963 3.56964 13.7473C2.58733 17.0983 2.80496 20.687 4.18499 23.8948C4.32883 24.1929 4.37602 24.5285 4.31999 24.8548L2.99999 31.1998C2.94914 31.4431 2.95952 31.6951 3.03022 31.9334C3.10091 32.1717 3.22969 32.3886 3.40499 32.5648C3.5487 32.7075 3.71981 32.8195 3.908 32.8943C4.09619 32.9691 4.29756 33.0049 4.49999 32.9998H4.79999L11.22 31.7098C11.5463 31.6706 11.8772 31.7171 12.18 31.8448C15.3877 33.2248 18.9765 33.4425 22.3275 32.4601C25.6785 31.4778 28.5818 29.3572 30.5368 26.4637C32.4918 23.5703 33.3761 20.0854 33.0371 16.6099C32.6982 13.1343 31.1572 9.88597 28.68 7.42479L28.605 7.39479ZM29.85 19.9348C29.5567 21.7258 28.861 23.4269 27.8153 24.9101C26.7696 26.3934 25.4011 27.6202 23.8127 28.4981C22.2244 29.376 20.4576 29.8822 18.6453 29.9786C16.8331 30.0751 15.0225 29.7592 13.35 29.0548C12.7568 28.8025 12.1196 28.6699 11.475 28.6648C11.1934 28.6668 10.9125 28.6918 10.635 28.7398L6.40499 29.5948L7.25999 25.3648C7.43028 24.4487 7.32051 23.5026 6.94499 22.6498C6.24058 20.9772 5.9247 19.1667 6.02113 17.3545C6.11756 15.5422 6.62379 13.7754 7.50171 12.1871C8.37963 10.5987 9.60638 9.23019 11.0896 8.18446C12.5729 7.13874 14.274 6.44306 16.065 6.14979C17.9449 5.84126 19.8713 5.98475 21.6847 6.56838C23.4982 7.15201 25.1466 8.15901 26.4937 9.50609C27.8408 10.8532 28.8478 12.5016 29.4314 14.3151C30.015 16.1285 30.1585 18.0549 29.85 19.9348Z" fill="#2C3FCE" stroke="white" mask="url(#path-8-inside-4_0_1)"/>
</g>
<defs>
<clipPath id="clip0_0_1">
<rect width="1440" height="6032" fill="white" transform="translate(-738 -3170)"/>
</clipPath>
</defs>
</svg>
