<svg width="36" height="36" viewBox="0 0 36 36" fill="none" xmlns="http://www.w3.org/2000/svg">
<path fill-rule="evenodd" clip-rule="evenodd" d="M30.33 9.864L24.084 3.114C23.58 2.556 22.86 2.25 22.104 2.25H7.64995C6.15595 2.25 4.94995 3.456 4.94995 4.95V31.05C4.94995 32.544 6.15595 33.75 7.64995 33.75H28.35C29.844 33.75 31.0499 32.544 31.0499 31.05V11.7C31.0499 11.016 30.798 10.368 30.33 9.864ZM27.7199 10.368H23.382V5.688L27.7199 10.368ZM28.3319 31.5C28.584 31.5 28.7819 31.302 28.7819 31.05L28.818 31.068V12.636H22.734C21.852 12.636 21.15 11.916 21.15 11.052V4.5H7.64995C7.39795 4.5 7.19995 4.698 7.19995 4.95V31.05C7.19995 31.302 7.39795 31.5 7.64995 31.5H28.3319Z" fill="#2C3FCE"/>
<path d="M11.016 18H24.966C25.2145 18 25.416 18.2015 25.416 18.45V19.8C25.416 20.0485 25.2145 20.25 24.966 20.25H11.016C10.7674 20.25 10.566 20.0485 10.566 19.8V18.45C10.566 18.2015 10.7674 18 11.016 18Z" fill="#2C3FCE"/>
<path d="M11.016 24.012H24.966C25.2145 24.012 25.416 24.2135 25.416 24.462V25.812C25.416 26.0605 25.2145 26.262 24.966 26.262H11.016C10.7674 26.262 10.566 26.0605 10.566 25.812V24.462C10.566 24.2135 10.7674 24.012 11.016 24.012Z" fill="#2C3FCE"/>
</svg>
