<svg width="37" height="36" viewBox="0 0 37 36" fill="none" xmlns="http://www.w3.org/2000/svg">
<path d="M33.7494 22.3121C33.5581 22.4404 33.341 22.5011 33.1261 22.5011C32.7627 22.5011 32.405 22.3256 32.189 22.0005L31.6366 21.1714C30.1696 27.729 24.2577 32.625 17.375 32.625C9.311 32.625 2.75 26.064 2.75 18C2.75 9.936 9.311 3.375 17.375 3.375C22.0685 3.375 26.51 5.65313 29.255 9.468C29.6184 9.972 29.5036 10.6751 28.9985 11.0385C28.4923 11.4008 27.7903 11.286 27.428 10.782C25.1049 7.55325 21.3462 5.625 17.3739 5.625C10.5507 5.625 4.99888 11.1769 4.99888 18C4.99888 24.8231 10.5507 30.375 17.3739 30.375C23.0506 30.375 27.95 26.4398 29.3439 21.1039L28.8331 21.6112C28.3921 22.05 27.68 22.0466 27.2424 21.6056C26.8048 21.1646 26.807 20.4525 27.248 20.0149L30.0808 17.2024C30.3193 16.965 30.6478 16.8469 30.9864 16.8806C31.3205 16.9144 31.6231 17.0966 31.8088 17.3756L34.0588 20.7517C34.403 21.2681 34.2635 21.9679 33.7471 22.3121H33.7494ZM21.0796 14.3921L16.25 19.2218L13.6704 16.6421C13.2305 16.2023 12.5195 16.2023 12.0796 16.6421C11.6398 17.082 11.6398 17.793 12.0796 18.2329L15.4546 21.6079C15.674 21.8273 15.962 21.9375 16.25 21.9375C16.538 21.9375 16.826 21.8273 17.0454 21.6079L22.6704 15.9829C23.1103 15.543 23.1103 14.832 22.6704 14.3921C22.2305 13.9523 21.5195 13.9523 21.0796 14.3921Z" fill="#2C3FCE"/>
</svg>
