<svg width="86" height="61" viewBox="0 0 86 61" fill="none" xmlns="http://www.w3.org/2000/svg">
<g clip-path="url(#clip0_19_607)">
<path d="M35.812 7.04581C38.5764 4.1655 42.425 2.37906 46.6814 2.37906C52.3395 2.37906 57.276 5.5341 59.9049 10.2178C62.1894 9.19716 64.7181 8.62934 67.3786 8.62934C77.5836 8.62934 85.8572 16.9749 85.8572 27.2691C85.8572 37.5646 77.5836 45.9102 67.3786 45.9102C66.1563 45.9109 64.9369 45.7894 63.7388 45.5475C61.4238 49.6769 57.0123 52.4669 51.9488 52.4669C49.8291 52.4669 47.8242 51.9773 46.0392 51.1067C43.6924 56.6269 38.2247 60.4974 31.8523 60.4974C25.2162 60.4974 19.5605 56.2984 17.3896 50.4095C16.4409 50.611 15.4579 50.716 14.4494 50.716C6.54829 50.7161 0.142883 44.2448 0.142883 36.2607C0.142883 30.9102 3.02079 26.2386 7.29672 23.7393C6.41641 21.7137 5.92675 19.478 5.92675 17.1275C5.92675 7.9456 13.381 0.502441 22.5751 0.502441C27.9732 0.502441 32.7705 3.06898 35.812 7.04581Z" fill="#00A1E0"/>
<path d="M12.5578 31.6146C12.5041 31.755 12.5774 31.7844 12.5945 31.8087C12.7556 31.9259 12.9193 32.0103 13.0841 32.1042C13.9583 32.5681 14.7838 32.7036 15.647 32.7036C17.4053 32.7036 18.4968 31.7684 18.4968 30.2629V30.2336C18.4968 28.8416 17.2649 28.3361 16.1086 27.9711L15.9584 27.9222C15.0866 27.6389 14.3345 27.3948 14.3345 26.8209V26.7905C14.3345 26.2996 14.774 25.9381 15.4554 25.9381C16.2124 25.9381 17.1111 26.1897 17.6898 26.5095C17.6898 26.5095 17.8595 26.6195 17.9218 26.4546C17.9559 26.3667 18.249 25.5779 18.2796 25.4925C18.3125 25.3996 18.2539 25.3312 18.1941 25.2946C17.5335 24.8929 16.6202 24.6182 15.6752 24.6182L15.4994 24.6194C13.8901 24.6194 12.7668 25.5913 12.7668 26.9844V27.0138C12.7668 28.4826 14.0061 28.9588 15.1673 29.2909L15.3541 29.3483C16.2003 29.6084 16.9292 29.8318 16.9292 30.4277V30.457C16.9292 31.0016 16.4555 31.4069 15.6911 31.4069C15.3945 31.4069 14.4482 31.4008 13.4262 30.7548C13.3028 30.6828 13.2308 30.6303 13.1356 30.5729C13.0856 30.5412 12.9598 30.4862 12.9049 30.6523L12.5578 31.6146ZM38.2977 31.6146C38.244 31.755 38.3172 31.7844 38.3343 31.8087C38.4954 31.9259 38.6591 32.0103 38.8239 32.1042C39.6981 32.5681 40.5237 32.7036 41.3868 32.7036C43.145 32.7036 44.2367 31.7684 44.2367 30.2629V30.2336C44.2367 28.8416 43.0047 28.3361 41.8483 27.9711L41.6982 27.9222C40.8264 27.6389 40.0742 27.3948 40.0742 26.8209V26.7905C40.0742 26.2996 40.5137 25.9381 41.1951 25.9381C41.9521 25.9381 42.8507 26.1897 43.4295 26.5095C43.4295 26.5095 43.5993 26.6195 43.6615 26.4546C43.6956 26.3667 43.9887 25.5779 44.0192 25.4925C44.0523 25.3996 43.9936 25.3312 43.9338 25.2946C43.2732 24.8929 42.3599 24.6182 41.4149 24.6182L41.239 24.6194C39.6297 24.6194 38.5064 25.5913 38.5064 26.9844V27.0138C38.5064 28.4826 39.7457 28.9588 40.9069 29.2909L41.0937 29.3483C41.9399 29.6084 42.6701 29.8318 42.6701 30.4277V30.457C42.6701 31.0016 42.1951 31.4069 41.4307 31.4069C41.1341 31.4069 40.1878 31.4008 39.1659 30.7548C39.0425 30.6828 38.9693 30.6328 38.8766 30.5729C38.8447 30.5522 38.6958 30.4948 38.6445 30.6523L38.2977 31.6146ZM55.8696 28.6656C55.8696 29.5167 55.7109 30.1869 55.3983 30.6607C55.0893 31.1296 54.6217 31.3579 53.9698 31.3579C53.3166 31.3579 52.8514 31.1308 52.5473 30.6607C52.2396 30.1882 52.0834 29.5167 52.0834 28.6656C52.0834 27.8158 52.2396 27.1467 52.5473 26.6778C52.8514 26.2139 53.3166 25.988 53.9698 25.988C54.6218 25.988 55.0894 26.2139 55.3996 26.6778C55.711 27.1466 55.8696 27.8158 55.8696 28.6656ZM57.3373 27.0881C57.1932 26.6008 56.9685 26.1711 56.6694 25.8134C56.3703 25.4544 55.9918 25.1663 55.5424 24.9562C55.0942 24.7475 54.5644 24.6412 53.9698 24.6412C53.3739 24.6412 52.844 24.7475 52.3959 24.9562C51.9466 25.1663 51.5681 25.4545 51.2677 25.8134C50.9698 26.1723 50.7451 26.6021 50.5999 27.0881C50.457 27.5728 50.3849 28.1027 50.3849 28.6656C50.3849 29.2285 50.457 29.7596 50.5999 30.2431C50.7451 30.7291 50.9686 31.159 51.269 31.5179C51.5681 31.8769 51.9479 32.1638 52.396 32.3676C52.8452 32.5716 53.3739 32.6753 53.9699 32.6753C54.5645 32.6753 55.0932 32.5716 55.5425 32.3676C55.9906 32.1638 56.3703 31.8768 56.6695 31.5179C56.9686 31.1601 57.1932 30.7303 57.3374 30.2431C57.4815 29.7584 57.5535 29.2273 57.5535 28.6656C57.5535 28.104 57.4814 27.5728 57.3373 27.0881ZM69.3894 31.1306C69.3406 30.9878 69.2026 31.0415 69.2026 31.0415C68.989 31.1234 68.7618 31.199 68.5201 31.2369C68.2746 31.2746 68.0047 31.2943 67.7153 31.2943C67.0048 31.2943 66.4407 31.083 66.0366 30.6654C65.6312 30.2479 65.4041 29.5727 65.4065 28.6593C65.409 27.8279 65.6091 27.2026 65.9694 26.7265C66.3272 26.2528 66.8718 26.0098 67.5982 26.0098C68.2039 26.0098 68.6654 26.0793 69.1488 26.232C69.1488 26.232 69.2648 26.282 69.3197 26.1306C69.4479 25.7741 69.5431 25.5189 69.6799 25.127C69.719 25.0158 69.6238 24.9682 69.5896 24.9548C69.3991 24.8803 68.9497 24.7595 68.6103 24.7082C68.2929 24.6593 67.9217 24.6337 67.509 24.6337C66.8923 24.6337 66.3429 24.7387 65.8729 24.9488C65.404 25.1575 65.0059 25.4456 64.691 25.8047C64.3759 26.1637 64.1366 26.5934 63.9767 27.0793C63.818 27.564 63.7374 28.0964 63.7374 28.6593C63.7374 29.8767 64.0658 30.8607 64.7142 31.5812C65.3637 32.3041 66.3394 32.6715 67.6117 32.6715C68.3638 32.6715 69.1355 32.519 69.6899 32.3004C69.6899 32.3004 69.7961 32.2491 69.7497 32.1258L69.3894 31.1306ZM71.9573 27.8503C72.0269 27.3778 72.1576 26.9846 72.359 26.6782C72.6631 26.213 73.127 25.9578 73.7791 25.9578C74.4312 25.9578 74.8621 26.2142 75.171 26.6782C75.3762 26.9846 75.4653 27.395 75.5008 27.8503H71.9573ZM76.8987 26.8112C76.7742 26.3411 76.4652 25.8661 76.2626 25.6488C75.9426 25.3045 75.6301 25.064 75.32 24.9296C74.9146 24.7562 74.4286 24.6415 73.8963 24.6415C73.2761 24.6415 72.7131 24.7453 72.2565 24.9602C71.7987 25.1751 71.4141 25.4682 71.1124 25.8333C70.8108 26.1971 70.5837 26.6305 70.4396 27.1226C70.2943 27.6122 70.2211 28.1458 70.2211 28.7086C70.2211 29.2813 70.2968 29.8149 70.447 30.2947C70.5984 30.7783 70.8401 31.2044 71.1673 31.5572C71.4933 31.9125 71.9134 32.191 72.4164 32.385C72.9159 32.5779 73.5227 32.6781 74.2198 32.6768C75.6546 32.6719 76.4103 32.352 76.7217 32.1798C76.7767 32.1494 76.8292 32.0956 76.7631 31.9418L76.4384 31.0321C76.3896 30.8966 76.2516 30.9466 76.2516 30.9466C75.8962 31.0785 75.3909 31.3154 74.2125 31.313C73.4421 31.3118 72.8706 31.0847 72.5128 30.7293C72.1453 30.3655 71.9658 29.8306 71.9341 29.0761L76.9023 29.081C76.9023 29.081 77.0329 29.0786 77.0464 28.9515C77.0513 28.898 77.2174 27.9309 76.8987 26.8112ZM32.1688 27.8503C32.2396 27.3778 32.3691 26.9846 32.5705 26.6782C32.8745 26.213 33.3385 25.9578 33.9905 25.9578C34.6425 25.9578 35.0736 26.2142 35.3836 26.6782C35.5875 26.9846 35.6766 27.395 35.7121 27.8503H32.1688ZM37.1089 26.8112C36.9844 26.3411 36.6767 25.8661 36.4741 25.6488C36.1541 25.3045 35.8416 25.064 35.5315 24.9296C35.1261 24.7562 34.6402 24.6415 34.1078 24.6415C33.4887 24.6415 32.9246 24.7453 32.468 24.9602C32.0102 25.1751 31.6255 25.4682 31.3239 25.8333C31.0223 26.1971 30.7952 26.6305 30.6512 27.1226C30.5071 27.6122 30.4326 28.1458 30.4326 28.7086C30.4326 29.2813 30.5083 29.8149 30.6585 30.2947C30.81 30.7783 31.0518 31.2044 31.3789 31.5572C31.705 31.9125 32.125 32.191 32.628 32.385C33.1274 32.5779 33.7342 32.6781 34.4314 32.6768C35.8661 32.6719 36.6219 32.352 36.9333 32.1798C36.9883 32.1494 37.0407 32.0956 36.9748 31.9418L36.6513 31.0321C36.6011 30.8966 36.4633 30.9466 36.4633 30.9466C36.108 31.0785 35.6036 31.3154 34.4229 31.313C33.6537 31.3118 33.0823 31.0847 32.7245 30.7293C32.357 30.3655 32.1775 29.8306 32.1457 29.0761L37.114 29.081C37.114 29.081 37.2446 29.0786 37.258 28.9515C37.2627 28.898 37.4288 27.9309 37.1089 26.8112ZM21.43 31.1035C21.2358 30.9483 21.209 30.9093 21.1431 30.8092C21.0453 30.6565 20.9953 30.4392 20.9953 30.1633C20.9953 29.7261 21.1394 29.4123 21.4386 29.2011C21.4349 29.2024 21.8659 28.8287 22.8793 28.8421C23.5911 28.8519 24.2272 28.9569 24.2272 28.9569V31.2158H24.2284C24.2284 31.2158 23.5972 31.3512 22.8866 31.394C21.8756 31.4551 21.4263 31.1023 21.43 31.1035ZM23.4067 27.6126C23.2053 27.5979 22.9439 27.5893 22.6313 27.5893C22.2053 27.5893 21.7938 27.643 21.4079 27.7469C21.0197 27.8506 20.6705 28.0131 20.3701 28.2279C20.0702 28.4419 19.8236 28.7223 19.6497 29.0472C19.4739 29.3744 19.3848 29.7603 19.3848 30.1925C19.3848 30.6321 19.4604 31.0142 19.6119 31.3269C19.7633 31.6406 19.9818 31.9019 20.2602 32.1035C20.5361 32.3049 20.8768 32.4526 21.2724 32.5417C21.6619 32.6309 22.1038 32.676 22.5874 32.676C23.0966 32.676 23.6045 32.6346 24.0966 32.5502C24.5837 32.4672 25.182 32.3463 25.348 32.3085C25.4645 32.2805 25.5805 32.2507 25.696 32.2194C25.8194 32.1889 25.8096 32.0569 25.8096 32.0569L25.8071 27.5137C25.8071 26.5173 25.541 25.7785 25.0172 25.3207C24.4958 24.8641 23.7278 24.6332 22.7352 24.6332C22.3627 24.6332 21.7632 24.6846 21.4042 24.7566C21.4042 24.7566 20.3188 24.9666 19.8718 25.3158C19.8718 25.3158 19.7742 25.3769 19.8279 25.5137L20.1796 26.4587C20.2235 26.5808 20.342 26.5393 20.342 26.5393C20.342 26.5393 20.3799 26.5246 20.4239 26.499C21.38 25.9789 22.5887 25.9947 22.5887 25.9947C23.126 25.9947 23.5387 26.1022 23.817 26.3158C24.0881 26.5234 24.226 26.8371 24.226 27.4989V27.7089C23.7987 27.6479 23.4067 27.6126 23.4067 27.6126ZM63.4779 25.0527C63.5156 24.9403 63.4363 24.8865 63.4033 24.8744C63.3191 24.8414 62.8966 24.7523 62.5706 24.7315C61.9467 24.6937 61.6 24.7987 61.2898 24.9379C60.9821 25.077 60.6403 25.3016 60.4497 25.5569V24.9525C60.4497 24.8683 60.3899 24.8011 60.3069 24.8011H59.0333C58.9503 24.8011 58.8905 24.8682 58.8905 24.9525V32.3627C58.8905 32.4458 58.9589 32.5142 59.0419 32.5142H60.3472C60.3872 32.5139 60.4254 32.4979 60.4536 32.4695C60.4817 32.4411 60.4974 32.4027 60.4973 32.3627V28.6607C60.4973 28.1638 60.5523 27.6681 60.6622 27.3567C60.7697 27.049 60.9162 26.8024 61.0969 26.6253C61.2788 26.4495 61.4851 26.3262 61.7111 26.2566C61.9418 26.1857 62.1969 26.1626 62.3777 26.1626C62.6378 26.1626 62.9235 26.2297 62.9235 26.2297C63.0187 26.2406 63.0724 26.182 63.1041 26.0954C63.1896 25.8683 63.4314 25.1881 63.4779 25.0527Z" fill="white"/>
<path d="M51.226 21.6182C51.0673 21.5694 50.9232 21.5364 50.7351 21.501C50.5446 21.4669 50.3175 21.4497 50.06 21.4497C49.1612 21.4497 48.453 21.7037 47.9562 22.2042C47.4616 22.7025 47.1258 23.4607 46.9573 24.4583L46.8962 24.794H45.7681C45.7681 24.794 45.6313 24.7891 45.602 24.9382L45.4177 25.9723C45.4042 26.07 45.447 26.1322 45.5788 26.1322H46.6765L45.5629 32.3496C45.4762 32.8502 45.3761 33.2617 45.265 33.5742C45.1562 33.882 45.0501 34.1127 44.9182 34.2812C44.7913 34.4424 44.6716 34.562 44.4639 34.6316C44.293 34.689 44.0952 34.7159 43.8791 34.7159C43.7594 34.7159 43.5996 34.6962 43.4811 34.6718C43.3639 34.6486 43.3016 34.623 43.2124 34.5851C43.2124 34.5851 43.0843 34.5364 43.0329 34.6645C42.9926 34.7708 42.6996 35.5753 42.6642 35.6743C42.63 35.7732 42.6789 35.8501 42.7411 35.8733C42.8876 35.9246 42.9962 35.9588 43.1953 36.0064C43.4713 36.0712 43.7044 36.0748 43.923 36.0748C44.3796 36.0748 44.7972 36.0101 45.1428 35.8856C45.4896 35.7598 45.7923 35.5412 46.0609 35.2458C46.3503 34.9258 46.5322 34.5913 46.7057 34.1334C46.8778 33.6816 47.0257 33.12 47.1428 32.4656L48.2625 26.1322H49.8986C49.8986 26.1322 50.0365 26.1371 50.0647 25.987L50.2502 24.954C50.2625 24.8552 50.2209 24.7941 50.0878 24.7941H48.4993C48.5079 24.7588 48.5798 24.1994 48.7618 23.6733C48.84 23.4499 48.9864 23.2679 49.1098 23.1433C49.232 23.0212 49.3724 22.9346 49.5263 22.8845C49.6837 22.8331 49.8633 22.8088 50.0599 22.8088C50.2088 22.8088 50.3565 22.8259 50.4676 22.849C50.6215 22.8821 50.6813 22.8991 50.7217 22.9114C50.8841 22.9602 50.906 22.9126 50.9378 22.8345L51.3175 21.7918C51.3566 21.6792 51.2602 21.6316 51.226 21.6182ZM29.0312 32.363C29.0312 32.4461 28.9714 32.5133 28.8884 32.5133H27.5709C27.4879 32.5133 27.4293 32.4461 27.4293 32.363V21.7599C27.4293 21.6769 27.4879 21.6097 27.5709 21.6097H28.8884C28.9714 21.6097 29.0312 21.6769 29.0312 21.7599V32.363Z" fill="white"/>
</g>
<defs>
<clipPath id="clip0_19_607">
<rect width="85.7143" height="60" fill="white" transform="translate(0.142883 0.5)"/>
</clipPath>
</defs>
</svg>
