<svg width="36" height="36" viewBox="0 0 36 36" fill="none" xmlns="http://www.w3.org/2000/svg">
<path d="M15.534 31.4819H4.842C4.644 31.4819 4.5 31.3199 4.5 31.1219V4.82393C4.5 4.62593 4.662 4.48193 4.842 4.48193H25.758C25.956 4.48193 26.1 4.64393 26.1 4.82393V13.9319C26.1 14.1839 26.298 14.3819 26.532 14.3819H27.882C28.134 14.3819 28.332 14.1839 28.332 13.9319V4.82393C28.332 3.40193 27.162 2.23193 25.74 2.23193H4.842C3.42 2.23193 2.25 3.40193 2.25 4.82393V31.1399C2.25 32.5619 3.42 33.7319 4.842 33.7319H15.516C15.768 33.7319 15.966 33.5339 15.966 33.2999V31.9499C15.966 31.6979 15.768 31.4999 15.516 31.4999L15.534 31.4819Z" fill="#2C3FCE"/>
<path d="M8.334 9.19793H22.284C22.5325 9.19793 22.734 9.39941 22.734 9.64793V10.9979C22.734 11.2465 22.5325 11.4479 22.284 11.4479H8.334C8.08547 11.4479 7.884 11.2465 7.884 10.9979V9.64793C7.884 9.39941 8.08547 9.19793 8.334 9.19793Z" fill="#2C3FCE"/>
<path fill-rule="evenodd" clip-rule="evenodd" d="M19.386 16.8479C20.844 15.8399 22.626 15.2639 24.534 15.2639V15.2819C29.61 15.2819 33.75 19.4219 33.75 24.4979C33.75 29.5739 29.628 33.7139 24.534 33.7139C20.232 33.7139 16.632 30.7439 15.624 26.7479H8.334C8.082 26.7479 7.884 26.5499 7.884 26.2979V24.9479C7.884 24.6959 8.082 24.4979 8.334 24.4979H15.318C15.318 22.4819 16.002 20.6279 17.1 19.0979H8.334C8.082 19.0979 7.884 18.8999 7.884 18.6479V17.2979C7.884 17.0459 8.082 16.8479 8.334 16.8479H19.386ZM17.55 24.4799C17.55 28.3499 20.682 31.4639 24.534 31.4639C28.404 31.4639 31.518 28.3499 31.518 24.4799C31.518 20.6099 28.404 17.4959 24.534 17.4959C20.664 17.4959 17.55 20.6099 17.55 24.4799Z" fill="#2C3FCE"/>
<path d="M27.612 21.2579C27.432 21.0779 27.162 21.0779 26.982 21.2579L23.346 24.8939L22.086 23.6339C21.906 23.4539 21.636 23.4539 21.456 23.6339L20.502 24.5879C20.322 24.7679 20.322 25.0379 20.502 25.2179L23.022 27.7379C23.022 27.7379 23.22 27.8639 23.346 27.8639C23.454 27.8639 23.58 27.8279 23.67 27.7379L28.566 22.8419C28.746 22.6619 28.746 22.3919 28.566 22.2119L27.612 21.2579Z" fill="#2C3FCE"/>
</svg>
