<svg width="36" height="36" viewBox="0 0 36 36" fill="none" xmlns="http://www.w3.org/2000/svg">
<path d="M29.25 23.625C27.9533 23.6247 26.6963 24.0725 25.6917 24.8925C24.6872 25.7126 23.9968 26.8545 23.7375 28.125H7.875C6.68153 28.125 5.53693 27.6509 4.69302 26.807C3.84911 25.9631 3.375 24.8185 3.375 23.625C3.375 22.4315 3.84911 21.2869 4.69302 20.443C5.53693 19.5991 6.68153 19.125 7.875 19.125H28.125C29.9152 19.125 31.6321 18.4139 32.898 17.148C34.1638 15.8821 34.875 14.1652 34.875 12.375C34.875 10.5848 34.1638 8.86791 32.898 7.60204C31.6321 6.33617 29.9152 5.62501 28.125 5.62501H12.2625C11.9837 4.25922 11.2077 3.04559 10.085 2.21942C8.96221 1.39325 7.57269 1.01339 6.18578 1.1535C4.79888 1.2936 3.5134 1.94369 2.57857 2.97772C1.64374 4.01174 1.12615 5.35605 1.12615 6.75001C1.12615 8.14397 1.64374 9.48828 2.57857 10.5223C3.5134 11.5563 4.79888 12.2064 6.18578 12.3465C7.57269 12.4866 8.96221 12.1068 10.085 11.2806C11.2077 10.4544 11.9837 9.24081 12.2625 7.87501H28.125C29.0165 7.87208 29.8888 8.134 30.6312 8.62756C31.3736 9.12113 31.9526 9.82408 32.2949 10.6472C32.6372 11.4704 32.7273 12.3767 32.5537 13.2511C32.3801 14.1256 31.9507 14.9287 31.32 15.5588C30.9004 15.9779 30.4022 16.3099 29.8539 16.5358C29.3056 16.7617 28.718 16.877 28.125 16.875H7.875C6.08479 16.875 4.3679 17.5862 3.10203 18.852C1.83616 20.1179 1.125 21.8348 1.125 23.625C1.125 25.4152 1.83616 27.1321 3.10203 28.398C4.3679 29.6639 6.08479 30.375 7.875 30.375H23.7375C23.9504 31.4178 24.4547 32.3788 25.1919 33.1464C25.9291 33.914 26.869 34.4567 27.9023 34.7115C28.9357 34.9662 30.0201 34.9226 31.0296 34.5857C32.0392 34.2488 32.9324 33.6323 33.6056 32.808C34.2788 31.9837 34.7043 30.9853 34.8327 29.9288C34.9612 28.8723 34.7872 27.801 34.3311 26.8394C33.875 25.8778 33.1555 25.0654 32.2561 24.4964C31.3567 23.9274 30.3143 23.6252 29.25 23.625ZM6.75 10.125C6.08249 10.125 5.42997 9.92707 4.87495 9.55622C4.31993 9.18537 3.88735 8.65827 3.63191 8.04157C3.37646 7.42487 3.30962 6.74627 3.43985 6.09158C3.57007 5.4369 3.89151 4.83553 4.36351 4.36353C4.83552 3.89153 5.43688 3.57009 6.09157 3.43986C6.74626 3.30964 7.42486 3.37647 8.04156 3.63192C8.65826 3.88736 9.18536 4.31995 9.55621 4.87496C9.92706 5.42998 10.125 6.0825 10.125 6.75001C10.125 7.64512 9.76942 8.50356 9.13649 9.1365C8.50355 9.76943 7.64511 10.125 6.75 10.125ZM29.25 32.625C28.5825 32.625 27.93 32.4271 27.375 32.0562C26.8199 31.6854 26.3874 31.1583 26.1319 30.5416C25.8765 29.9249 25.8096 29.2463 25.9398 28.5916C26.0701 27.9369 26.3915 27.3355 26.8635 26.8635C27.3355 26.3915 27.9369 26.0701 28.5916 25.9399C29.2463 25.8096 29.9249 25.8765 30.5416 26.1319C31.1583 26.3874 31.6854 26.8199 32.0562 27.375C32.4271 27.93 32.625 28.5825 32.625 29.25C32.625 30.1451 32.2694 31.0036 31.6365 31.6365C31.0036 32.2694 30.1451 32.625 29.25 32.625Z" fill="#2C3FCE"/>
</svg>
