<svg width="36" height="36" viewBox="0 0 36 36" fill="none" xmlns="http://www.w3.org/2000/svg">
<path fill-rule="evenodd" clip-rule="evenodd" d="M14.634 19.1159H21.366C28.206 19.1159 33.75 24.6779 33.75 31.4999V33.7499H2.25V31.4999C2.25 24.6599 7.812 19.1159 14.634 19.1159ZM14.616 21.3839C9.036 21.3839 4.5 25.9019 4.5 31.4999H31.482C31.482 25.9199 26.964 21.3839 21.366 21.3839H14.616Z" fill="#2C3FCE"/>
<path fill-rule="evenodd" clip-rule="evenodd" d="M25.992 10.2239C25.992 14.6339 22.41 18.2159 18 18.2159C13.59 18.2159 10.008 14.6339 10.008 10.2239C10.008 5.81393 13.59 2.23193 18 2.23193C22.41 2.23193 25.992 5.81393 25.992 10.2239ZM23.742 10.2419C23.742 7.07393 21.168 4.49993 18 4.49993C14.832 4.49993 12.258 7.07393 12.258 10.2419C12.258 13.4099 14.832 15.9839 18 15.9839C21.168 15.9839 23.742 13.4099 23.742 10.2419Z" fill="#2C3FCE"/>
</svg>
