<svg width="36" height="36" viewBox="0 0 36 36" fill="none" xmlns="http://www.w3.org/2000/svg">
<g clip-path="url(#clip0_10_218)">
<path d="M17.73 32.2481H1.56377C1.1194 32.2481 0.759399 31.8881 0.759399 31.4437V3.22869C0.759399 2.78432 1.1194 2.42432 1.56377 2.42432H32.3325C32.7769 2.42432 33.1369 2.78432 33.1369 3.22869V17.3362C33.1369 17.7806 32.7769 18.1406 32.3325 18.1406C31.8881 18.1406 31.5282 17.7806 31.5282 17.3362V4.03307H2.36815V30.6337H17.73C18.1744 30.6337 18.5344 30.9937 18.5344 31.4381C18.54 31.8881 18.18 32.2481 17.73 32.2481Z" fill="#2C3FCE"/>
<path d="M32.3325 10.1249H1.56377C1.1194 10.1249 0.759399 9.76486 0.759399 9.32049C0.759399 8.87611 1.1194 8.51611 1.56377 8.51611H32.3325C32.7769 8.51611 33.1369 8.87611 33.1369 9.32049C33.1369 9.76486 32.7769 10.1249 32.3325 10.1249Z" fill="#2C3FCE"/>
<path d="M7.55438 6.65438C7.11 6.65438 6.75 6.29437 6.75 5.85V0.804375C6.75 0.36 7.11 0 7.55438 0C7.99875 0 8.35875 0.36 8.35875 0.804375V5.84438C8.35875 6.28875 7.99875 6.65438 7.55438 6.65438ZM26.3419 6.65438C25.8975 6.65438 25.5375 6.29437 25.5375 5.85V0.804375C25.5375 0.36 25.8975 0 26.3419 0C26.7863 0 27.1462 0.36 27.1462 0.804375V5.84438C27.1462 6.28875 26.7863 6.65438 26.3419 6.65438Z" fill="#2C3FCE"/>
<path d="M26.6625 28.1532C23.3381 28.1532 20.6381 25.4476 20.6381 22.1289C20.6381 18.8101 23.3437 16.1045 26.6625 16.1045C29.9812 16.1045 32.6869 18.8101 32.6869 22.1289C32.6869 25.4476 29.9869 28.1532 26.6625 28.1532ZM26.6625 17.7189C24.2269 17.7189 22.2469 19.6989 22.2469 22.1345C22.2469 24.5701 24.2269 26.5501 26.6625 26.5501C29.0981 26.5501 31.0781 24.5701 31.0781 22.1345C31.0781 19.6932 29.0981 17.7189 26.6625 17.7189Z" fill="#2C3FCE"/>
<path d="M34.4362 36.0003C33.9919 36.0003 33.6319 35.6403 33.6319 35.1959C33.6319 31.3147 30.4762 28.1534 26.5893 28.1534C22.7868 28.1534 19.6931 31.2472 19.6931 35.0497V35.1959C19.6931 35.6403 19.3331 36.0003 18.8887 36.0003C18.4444 36.0003 18.0844 35.6403 18.0844 35.1959V35.0497C18.0844 30.3584 21.9037 26.5391 26.595 26.5391C31.365 26.5391 35.2462 30.4203 35.2462 35.1903C35.2406 35.6403 34.8806 36.0003 34.4362 36.0003Z" fill="#2C3FCE"/>
</g>
<defs>
<clipPath id="clip0_10_218">
<rect width="36" height="36" fill="white"/>
</clipPath>
</defs>
</svg>
