<svg width="88" height="30" viewBox="0 0 88 30" fill="none" xmlns="http://www.w3.org/2000/svg">
<g clip-path="url(#clip0_19_629)">
<path d="M87.3898 6.38965V26.9659L84.5424 29.7456V9.60999L87.3898 6.38965Z" fill="#E79225"/>
<path d="M68.7288 6.4066L65.7797 9.60999L65.9322 9.81338L84.4237 9.74558L84.5932 9.60999L87.3898 6.38965L68.7288 6.4066Z" fill="#FFF16D"/>
<path d="M65.7797 9.61035H84.5932V29.7629H65.7797V9.61035Z" fill="url(#paint0_linear_19_629)"/>
<path d="M81.7288 16.8646C81.356 15.9324 80.7966 15.085 80.0678 14.3562C79.3729 13.6443 78.5932 13.1019 77.7119 12.746C76.8475 12.3901 75.9153 12.2036 74.8983 12.2036C73.8814 12.2036 72.9322 12.3901 72.0678 12.746C71.1865 13.1019 70.4068 13.6443 69.7119 14.3562C68.9831 15.085 68.4407 15.9324 68.0678 16.8646C67.6949 17.7968 67.5255 18.8138 67.5255 19.9324C67.5255 21.0172 67.7119 22.0341 68.0848 22.9833C68.4577 23.9324 69 24.7799 69.7288 25.5256C70.4068 26.2206 71.1865 26.746 72.0509 27.1019C72.9153 27.4578 73.8814 27.6443 74.9153 27.6443C75.9153 27.6443 76.8475 27.4578 77.7119 27.1019C78.5763 26.746 79.3729 26.2206 80.0678 25.5256C80.7966 24.7799 81.356 23.9324 81.7288 23.0002C82.1017 22.068 82.2882 21.0341 82.2882 19.9494C82.2882 18.8138 82.1017 17.7968 81.7288 16.8646ZM77.8475 23.5087C77.1187 24.3731 76.1526 24.8138 74.8983 24.8138C73.6441 24.8138 72.661 24.3731 71.9322 23.5087C71.2034 22.6443 70.8475 21.4409 70.8475 19.9155C70.8475 18.3562 71.2204 17.1528 71.9322 16.2714C72.661 15.3901 73.6271 14.9663 74.8983 14.9663C76.1526 14.9663 77.1187 15.407 77.8475 16.2714C78.5594 17.1528 78.9322 18.3562 78.9322 19.9155C78.9322 21.4409 78.5763 22.6443 77.8475 23.5087Z" fill="white"/>
<path d="M63.9322 4.71191V4.81361L66.339 23.3051L64.9322 27.2034L64.7458 27.0678L62.2712 9.33903L62.322 9.10174L63.8644 4.81361L63.9322 4.71191Z" fill="#009ADA"/>
<path d="M45.4068 7.28819L63.9322 4.71191L62.3729 9.15259L62.1525 9.38988L44.8305 11.9323L44.9153 8.76276L45.4068 7.28819Z" fill="#91C9ED"/>
<path d="M62.3729 9.15283L64.9322 27.2037L46.678 29.763L44.2203 12.3223L45.2881 11.4918L62.3729 9.15283Z" fill="url(#paint1_linear_19_629)"/>
<path d="M59.2712 12.6102C59.1865 12.0508 59 11.6271 58.6949 11.339C58.4407 11.1186 58.1356 11 57.7797 11C57.6949 11 57.5932 11 57.4916 11.0169C57.017 11.0847 56.661 11.3051 56.4407 11.661C56.2712 11.9153 56.2034 12.2373 56.2034 12.6102C56.2034 12.7458 56.2204 12.8983 56.2373 13.0508L56.8983 17.7458L51.6441 18.5254L50.9831 13.8305C50.8983 13.2881 50.7119 12.8644 50.4068 12.5763C50.1526 12.339 49.8475 12.2203 49.5085 12.2203C49.4238 12.2203 49.339 12.2203 49.2543 12.2373C48.7627 12.3051 48.3899 12.5254 48.1526 12.8814C47.9831 13.1356 47.9153 13.4576 47.9153 13.8305C47.9153 13.9661 47.9322 14.1186 47.9492 14.2881L49.7458 26.5085C49.8305 27.0678 50.017 27.4915 50.356 27.7797C50.6102 28 50.9153 28.1017 51.2882 28.1017C51.3899 28.1017 51.4916 28.1017 51.5932 28.0847C52.0509 28.0169 52.3899 27.7966 52.6102 27.4407C52.7627 27.1864 52.8305 26.8814 52.8305 26.5254C52.8305 26.3898 52.8136 26.2373 52.7966 26.0847L52.0678 21.2542L57.3221 20.4746L58.0509 25.3051C58.1356 25.8644 58.3221 26.2881 58.6441 26.5593C58.8983 26.7797 59.2034 26.8983 59.5593 26.8983C59.6441 26.8983 59.7458 26.8983 59.8475 26.8814C60.3221 26.8136 60.678 26.5932 60.8983 26.2373C61.0509 25.983 61.1356 25.678 61.1356 25.3051C61.1356 25.1695 61.1187 25.0169 61.1017 24.8644L59.2712 12.6102Z" fill="white"/>
<path d="M28.0678 0L21.4746 15.661L22.3729 22.5424L22.4238 22.5254L29.8305 5.86441L29.7966 5.50847L28.2034 0.220339L28.0678 0Z" fill="#66BF6B"/>
<path d="M28.0678 0L29.7797 5.74576L29.8136 5.86441L46.1187 13.1695L46.1695 13.1356L44.7797 7.64407L28.0678 0Z" fill="#98D0A0"/>
<path d="M29.7797 5.74561L46.1695 13.1354L38.7628 29.932L22.3729 22.5422L29.7797 5.74561Z" fill="url(#paint2_linear_19_629)"/>
<path d="M41.2034 14.4914C40.8475 13.5422 40.356 12.7287 39.7119 12.0507C39.0678 11.3727 38.2882 10.8304 37.3729 10.4405C36.4576 10.0507 35.5424 9.86426 34.6102 9.86426H34.5593C33.6102 9.86426 32.678 10.0846 31.7627 10.4914C30.7966 10.9151 29.9661 11.4914 29.2543 12.2541C28.5424 12.9999 27.9661 13.9151 27.5254 14.966C27.0848 15.9999 26.8475 17.0507 26.7966 18.0846V18.4405C26.7966 19.3558 26.9492 20.2541 27.2712 21.1354C27.6102 22.0676 28.1017 22.8643 28.7458 23.5422C29.3899 24.2202 30.1865 24.7626 31.1356 25.1524C32.0339 25.5422 32.9492 25.7287 33.8814 25.7287H33.8983C34.8305 25.7287 35.7627 25.5253 36.678 25.1354C37.6441 24.7117 38.4915 24.1185 39.2034 23.3558C39.9153 22.61 40.5085 21.7117 40.9492 20.6609C41.3899 19.61 41.6271 18.5761 41.678 17.5422V17.2371C41.6949 16.3049 41.5424 15.3897 41.2034 14.4914ZM37.9322 19.3727C37.3221 20.8304 36.4915 21.8304 35.4915 22.3727C34.9492 22.6609 34.3899 22.8134 33.8305 22.8134C33.339 22.8134 32.8136 22.6948 32.2882 22.4744C31.1356 21.9829 30.4238 21.2032 30.1187 20.0846C30.017 19.7117 29.9661 19.3219 29.9661 18.9151C29.9661 18.1015 30.1695 17.2032 30.5763 16.2371C31.2034 14.7456 32.0339 13.7287 33.0339 13.1693C33.5763 12.8643 34.1356 12.7287 34.6949 12.7287C35.2034 12.7287 35.7119 12.8473 36.2543 13.0676C37.3899 13.5592 38.1017 14.3388 38.4068 15.4575C38.5085 15.8134 38.5593 16.2032 38.5593 16.61C38.5593 17.4575 38.356 18.3727 37.9322 19.3727Z" fill="white"/>
<path d="M20.1695 2.66113L22.8475 20.5933L21.6271 26.8984L21.4576 26.6781L18.8475 9.35605V9.01706L20 2.96622L20.1695 2.66113Z" fill="#760D16"/>
<path d="M0.610168 11.9323L1.88135 5.59334L20.1695 2.66113L18.9322 9.11876V9.54249L0.830507 12.1018L0.610168 11.9323Z" fill="#EF463E"/>
<path d="M18.9322 9.11865L21.6271 26.8983L3.52542 29.7288L0.610168 11.9322L18.9322 9.11865Z" fill="url(#paint3_linear_19_629)"/>
<path d="M16.9831 24.068C16.8475 23.8985 16.6441 23.7799 16.4068 23.6951C16.1695 23.6104 15.8814 23.5765 15.5254 23.5765C15.2034 23.5765 14.8305 23.6104 14.4237 23.6782L9.64409 24.4918C9.69493 24.1189 9.88137 23.6443 10.2034 23.0511C10.5593 22.3901 11.1017 21.5934 11.7966 20.6782C12.0339 20.3562 12.2204 20.1189 12.356 19.9494C12.4407 19.8307 12.5763 19.6782 12.7458 19.4579C13.8475 18.0172 14.5085 16.8477 14.7797 15.9324C14.9322 15.407 15.017 14.8816 15.0509 14.3562C15.0678 14.2036 15.0678 14.068 15.0678 13.9324C15.0678 13.5596 15.0339 13.1867 14.9661 12.8138C14.9153 12.4748 14.8305 12.2036 14.7119 11.9833C14.5932 11.7629 14.4576 11.5935 14.2882 11.4918C14.1017 11.3731 13.8136 11.3223 13.4576 11.3223C13.1695 11.3223 12.8136 11.3562 12.3898 11.424L6.86443 12.3731C6.20341 12.4918 5.69493 12.6782 5.38985 12.9833C5.13561 13.2206 5.01697 13.5257 5.01697 13.8646C5.01697 13.9494 5.01697 14.0511 5.03392 14.1528C5.11866 14.6273 5.35595 14.9663 5.74578 15.1358C5.98307 15.2375 6.25426 15.2884 6.59324 15.2884C6.81358 15.2884 7.06782 15.2714 7.339 15.2206L11.9492 14.407C11.9492 14.4918 11.9661 14.5765 11.9661 14.6443C11.9661 14.9324 11.9153 15.2206 11.8136 15.4918C11.678 15.8816 11.339 16.424 10.7797 17.1189C10.6271 17.3053 10.3898 17.6104 10.0678 18.0002C8.81358 19.5087 7.93222 20.7968 7.38985 21.8646C7.00002 22.6104 6.74578 23.3223 6.59324 24.0511C6.50849 24.4748 6.45765 24.8646 6.45765 25.2545C6.45765 25.5257 6.4746 25.7968 6.52544 26.0511C6.59324 26.424 6.67798 26.729 6.79663 26.9663C6.91527 27.2036 7.08476 27.3901 7.2712 27.4918C7.45765 27.5934 7.71188 27.6273 8.08476 27.6273C8.54239 27.6273 9.16951 27.5595 9.96612 27.424L14.9831 26.5595C15.8644 26.407 16.4915 26.1867 16.8475 25.8985C17.1356 25.6612 17.2882 25.3392 17.2882 24.9663C17.2882 24.8646 17.2712 24.7629 17.2543 24.6612C17.2204 24.4409 17.1356 24.2375 16.9831 24.068Z" fill="white"/>
</g>
<defs>
<linearGradient id="paint0_linear_19_629" x1="1006.38" y1="38.4486" x2="1006.38" y2="1964.02" gradientUnits="userSpaceOnUse">
<stop offset="0.00562" stop-color="#FFE513"/>
<stop offset="1" stop-color="#FDB924"/>
</linearGradient>
<linearGradient id="paint1_linear_19_629" x1="137.672" y1="287.266" x2="2018.43" y2="1812.61" gradientUnits="userSpaceOnUse">
<stop offset="0.00562" stop-color="#008CD2"/>
<stop offset="1" stop-color="#00649D"/>
</linearGradient>
<linearGradient id="paint2_linear_19_629" x1="1212.25" y1="677.621" x2="1212.25" y2="2364.63" gradientUnits="userSpaceOnUse">
<stop stop-color="#26A146"/>
<stop offset="1" stop-color="#008A52"/>
</linearGradient>
<linearGradient id="paint3_linear_19_629" x1="919.765" y1="178.287" x2="1199.16" y2="1931.67" gradientUnits="userSpaceOnUse">
<stop stop-color="#D92231"/>
<stop offset="1" stop-color="#BA2234"/>
</linearGradient>
<clipPath id="clip0_19_629">
<rect width="86.8056" height="30" fill="white" transform="translate(0.597229)"/>
</clipPath>
</defs>
</svg>
