<svg xmlns="http://www.w3.org/2000/svg" width="32.541" height="32.541" viewBox="0 0 32.541 32.541">
  <path id="noun-insight-3823433" d="M131.73,35H110.811A5.811,5.811,0,0,0,105,40.811V61.73a5.811,5.811,0,0,0,5.811,5.811H131.73a5.811,5.811,0,0,0,5.811-5.811V40.811A5.811,5.811,0,0,0,131.73,35Zm.918,10.007-8.135,10.46a1.162,1.162,0,0,1-1.883-.07l-3.754-5.625-7.147,9.181h0a1.162,1.162,0,0,1-1.836-1.418l8.135-10.46a1.109,1.109,0,0,1,1.836.07l3.754,5.625,7.147-9.181h0a1.162,1.162,0,1,1,1.836,1.418Z" transform="translate(-105 -35)" fill="#2c40ce"/>
</svg>
