<svg xmlns="http://www.w3.org/2000/svg" xmlns:xlink="http://www.w3.org/1999/xlink" width="34" height="34" viewBox="0 0 400 400">
  <defs>
    <clipPath id="clip-Artboard_1">
      <rect width="400" height="400"/>
    </clipPath>
  </defs>
  <g id="Artboard_1" data-name="Artboard – 1" clip-path="url(#clip-Artboard_1)">
    <rect width="400" height="400" fill="#fff"/>
    <g id="Icon" transform="translate(28.355 39.802)">
      <g id="Group_1134" data-name="Group 1134" transform="translate(0.01 0)">
        <path id="Path_4869" data-name="Path 4869" d="M174.715,119.744a52.284,52.284,0,0,1,50.54,38.947l53.461-7.054a32.314,32.314,0,1,1,1.719,13.067l-53.47,7.054c0,.085.008.169.008.246a52.206,52.206,0,0,1-21.23,42.054l24.1,43.164a32.344,32.344,0,1,1-11.5,6.428l-24.1-43.155a52.376,52.376,0,0,1-49.939-5.979l-24.482,26.43A39.523,39.523,0,1,1,110.168,232l24.491-26.439A52,52,0,0,1,122.456,172a52.977,52.977,0,0,1,.83-9.332L60.128,142.685A32.135,32.135,0,1,1,64.269,126.9c0,1.076-.059,2.134-.161,3.184l63.158,19.986a52.378,52.378,0,0,1,33.544-28.446L155.1,81.856a40.887,40.887,0,1,1,13.075-1.863l5.7,39.768c.279-.008.559-.017.838-.017Z" transform="translate(-0.01 0)" fill="#2c40ce" fill-rule="evenodd"/>
      </g>
    </g>
  </g>
</svg>


