<svg xmlns="http://www.w3.org/2000/svg" width="32.351" height="32.351" viewBox="0 0 32.351 32.351">
  <g id="noun-rocket-680024" transform="translate(-81.183 -11.061)">
    <path id="Path_4833" data-name="Path 4833" d="M83.5,27.035l4.359,1.809a25.5,25.5,0,0,0-.947,3.066.929.929,0,0,0,.243.876l4.652,4.659a.93.93,0,0,0,.876.243,25.463,25.463,0,0,0,3.066-.95L97.557,41.1a.7.7,0,0,0,1.149.229l2.419-2.419a4.717,4.717,0,0,0,1.371-3.581l-.118-2.291c5.06-3.844,9.746-10.356,11.147-21.072a.785.785,0,0,0-.893-.893C101.916,12.464,95.4,17.133,91.543,22.2l-2.274-.1a4.717,4.717,0,0,0-3.578,1.368l-2.422,2.426a.7.7,0,0,0,.229,1.142Zm17.9-7.981a2.921,2.921,0,1,1-.862,2.072,2.92,2.92,0,0,1,.862-2.072ZM81.185,42.572a11.23,11.23,0,0,1,3.753-8.2h0a.391.391,0,0,1,.626.364,7.119,7.119,0,0,0-.061,2.092,2.577,2.577,0,0,0,2.247,2.247,7.113,7.113,0,0,0,2.109-.044.391.391,0,0,1,.364.64,11.308,11.308,0,0,1-8.2,3.739.8.8,0,0,1-.839-.839Z" fill="#2c40ce"/>
  </g>
</svg>
