<svg xmlns="http://www.w3.org/2000/svg" width="26.606" height="32.398" viewBox="0 0 26.606 32.398">
  <g id="noun-trust-5234489" transform="translate(-137.45 -23.737)">
    <path id="Path_4832" data-name="Path 4832" d="M137.6,40.2c0,.018,0,.036.005.054.9,6.875,5.82,12.937,12.832,15.819a.832.832,0,0,0,.633,0C158.082,53.19,163,47.128,163.9,40.253c0-.018,0-.036.005-.054l.148-2.263c0-.018,0-.036,0-.055V29.556a.832.832,0,0,0-.523-.773L151.063,23.8a.83.83,0,0,0-.618,0l-12.472,4.988a.833.833,0,0,0-.523.773v8.324c0,.018,0,.036,0,.055Zm13.153,14.2Zm-4.815-15.323A.832.832,0,1,1,147,37.8l3.7,3.089,6.758-6.758a.832.832,0,0,1,1.177,1.177l-7.3,7.3a.832.832,0,0,1-1.122.05Z" transform="translate(0 0)" fill="#2c40ce"/>
  </g>
</svg>
