<?xml version="1.0" encoding="utf-8"?>
<!-- Generator: Adobe Illustrator 23.0.3, SVG Export Plug-In . SVG Version: 6.00 Build 0)  -->
<svg version="1.1" id="Layer_1" xmlns="http://www.w3.org/2000/svg" xmlns:xlink="http://www.w3.org/1999/xlink" x="0px" y="0px"
	 viewBox="0 0 512 512" style="enable-background:new 0 0 512 512;" xml:space="preserve">
<style type="text/css">
	.st0{fill:#2C40CE;}
</style>
<g transform="translate(0.000000,512.000000) scale(0.100000,-0.100000)">
	<path class="st0" d="M1468,4617.8c-36.4-16.2-55-33.2-73.6-69.6c-13.8-26.7-15.4-49.3-15.4-196.6v-165.8h-248.3
		c-193.3,0-260.5-3.2-300.9-12.1c-163.4-38.8-301.7-183.6-331.7-347c-12.1-67.1-12.1-2910.5,0-2978.4
		C528,681.6,681.7,527.9,848.3,498c67.9-12.1,3355.4-12.1,3423.3,0c166.6,29.9,320.3,183.6,350.3,350.3
		c12.1,67.9,12.1,2911.3,0,2978.4c-29.9,163.4-168.3,308.2-331.7,347c-40.4,8.9-107.6,12.1-300.1,12.1H3741v168.3
		c0,158.5-1.6,169.1-18.6,199.8c-9.7,17.8-29.9,40.4-45.3,50.2c-72,48.5-165.8,25.9-208.7-50.2c-17-30.7-18.6-41.3-18.6-199.8
		v-168.3H2560h-889.8v165.8c0,147.2-1.6,169.9-15.4,196.6c-18.6,37.2-37.2,54.2-76,70.4C1542.4,4633.9,1504.4,4633.9,1468,4617.8z
		 M1379,3716.6c2.4-110.8,7.3-179.6,13.8-190.1c14.6-25.1,52.6-59.1,77.7-67.9c51.8-20.2,114.1-7.3,153.7,29.9
		c40.4,38,42.1,45.3,46.1,228.1l4,173.9H2560h885.8l4-173.9c2.4-110.8,7.3-179.6,13.8-190.1c14.6-25.1,52.6-59.1,77.7-67.9
		c51.8-20.2,114.1-7.3,153.7,29.9c40.4,38,42.1,45.3,46.1,228.1l4,173.9h238.6c232.2,0,239.4-0.8,272.6-17.8
		c21-12.1,42.1-31.5,55-53.4l20.2-35.6v-316.3v-317.1H2560H788.5v317.1v316.3l20.2,35.6c21,34.8,51.8,56.6,97.1,67.9
		c13.8,3.2,124.6,4.9,246.7,4.9l222.5-1.6L1379,3716.6z M4331.5,1874.7V891.1l-19.4-33.2c-10.5-18.6-34-41.3-51.8-51.8l-32.4-17.8
		H2560H892l-32.4,17.8c-17.8,10.5-41.3,33.2-51.8,51.8l-19.4,33.2v983.6v984.4H2560h1771.5V1874.7z"/>
	<path class="st0" d="M3389.1,2544.5c-21.8-10.5-206.3-189.3-574.3-558.1c-297.7-298.5-545.2-542.8-550.1-542.8
		c-4.9,0-118.9,111.6-254.8,247.5s-257.2,252.4-271,259.7c-30.7,16.2-98.7,16.2-131,0c-53.4-28.3-90.6-99.5-80.1-155.3
		c3.2-14.6,16.2-42.1,29.1-61.5c12.9-19.4,155.3-167.4,317.1-328.4c299.3-298.5,331.7-325.2,389.1-326c12.1,0,35.6,5.7,52.6,12.1
		c41.3,17.8,1242.5,1215.8,1264.3,1261.9c17,37.2,18.6,53.4,7.3,94.6c-11.3,40.4-44.5,78.5-84.9,96.3
		C3461.1,2563.9,3429.6,2563.1,3389.1,2544.5z"/>
</g>
</svg>
