<svg id="Layer_1" data-name="Layer 1" xmlns="http://www.w3.org/2000/svg" viewBox="0 0 512 512"><defs><style>.cls-1{fill:#2c40ce;}</style></defs><title>Saleswise Icon</title><path class="cls-1" d="M460.11,112.81a29.28,29.28,0,0,1,11.12,11.31c1.66,3.13,1.75,8.09,1.75,130.09s-.09,127-1.75,130.1a29.18,29.18,0,0,1-11.12,11.3l-3.68,2h-200c-193.25,0-200.06-.09-203.18-1.75A29.21,29.21,0,0,1,42,384.77l-2-3.68V254.21c0-122,.09-127,1.74-130.09a26.4,26.4,0,0,1,15.27-13c1.28-.37,91.66-.65,200.88-.55l198.59.18ZM293.33,416.94l82.93-.46,82.93-.45,5.05-2a45.55,45.55,0,0,0,25-24.91l2.12-5.24V124.58l-2.12-5.24a45.53,45.53,0,0,0-25-24.92l-5.05-2-200.43-.18C72.49,92,57.87,92.13,52.36,93.6a42.05,42.05,0,0,0-29.88,30.06c-1.2,4.78-1.38,21.15-1.38,130.55,0,136.62-.28,130.28,5.24,140.39,3,5.61,10,12.78,15.45,16,9.74,5.61,5.24,5.33,95.34,5.88l82.46.46,22.16-.46,14.9.19,14.8.27Z"/><path class="cls-1" d="M243.22,193.64c-13.7,3.31-27,13.79-33.1,26.2-3.49,7.08-6.06,17-6.06,23.35,0,11.22,5.79,25.75,13.88,34.76,2.57,2.94,4.6,5.42,4.41,5.51-14.16,8.37-24.73,19.22-31.07,31.9-6.71,13.43-7.82,19.59-7.91,42.57v19.22l3,2.66,2.95,2.67H321.92l2.67-2.67,2.66-2.66V357.93c0-21.33-.82-27.12-5.51-38.24a73.12,73.12,0,0,0-28.32-33.1l-5.7-3.59,3.77-3.86a51.12,51.12,0,0,0,12.41-51.67C295.9,202.28,269.15,187.39,243.22,193.64Zm25.93,20.13c20,8.92,25.1,35.12,10.2,51.49a32.22,32.22,0,0,1-42.1,5c-18.94-12.68-19.31-40-.74-53.69C245.61,209.91,258.12,208.81,269.15,213.77Zm3,83.12c15.17,4.87,28.23,17.74,34.11,33.74,1.66,4.41,2,8,2.39,19.4l.37,14.06H201l.46-12.69c.46-10.29,1-14,3-19.95,6-17.92,19.21-30.52,37.42-35.39C250.49,293.67,263.36,294,272.18,296.89Z"/></svg>