<svg id="Layer_1" data-name="Layer 1" xmlns="http://www.w3.org/2000/svg" viewBox="0 0 512 512"><defs><style>.cls-1{fill:#2c40ce;}</style></defs><title>Saleswise Icon</title><path class="cls-1" d="M481,85.64v-.21c0-6.92-4.65-14.58-11.06-18.22l-5.22-2.89H46.8l-4.95,3C35.63,70.92,31,78.68,31,85.42v.22c0,5.42,0,5.42,22.14,43.44l23.93,41H435l24-41.07C481.06,91.06,481.06,91.06,481,85.64Zm-17.18.46c-1.39,3.11-7.1,12.9-19.61,34.37l-19.05,32.66H86.81l-19-32.61C55.66,99.7,49.56,89.25,48.16,86.11l-.26-.56.22-.58a6.81,6.81,0,0,1,2.1-2.82l1.37-.83H460.36l1.21.67a6.61,6.61,0,0,1,2.32,3l.21.57Z"/><path class="cls-1" d="M414.44,179l-2.54-.05-9.37-.09c-8-.06-19.83-.12-34.2-.16-30.93-.11-70.82-.16-112.33-.16s-81.4.05-112.33.16c-14.37,0-26.2.1-34.2.16l-9.37.09-2.54.05c-9,.26-9.08,8.21-9.08,8.54,0,2.48,0,2.48,6.34,13.73,3.1,5.49,7.47,13.17,12.62,22.2L127.65,259h256.7l20.2-35.5c5.15-9,9.51-16.69,12.63-22.22,6.34-11.24,6.34-11.24,6.34-13.72C423.52,187.18,423.41,179.23,414.44,179Zm-15,19.07c-2.52,4.44-5.71,10.05-9.68,17l-15.31,26.91H137.54L122.21,215c-4-6.93-7.15-12.53-9.67-17l-1.26-2.23h2.56c28.83-.18,84.63-.29,142.16-.29s113.33.11,142.16.29h2.56Z"/><path class="cls-1" d="M364.07,267.79c-.41,0-1,0-1.83-.05-1.47,0-3.64-.07-6.42-.1-5.52-.06-13.58-.11-23.31-.16-21-.1-48.17-.16-76.51-.16s-55.51.06-76.5.16c-9.74,0-17.8.1-23.32.16-2.78,0-5,.06-6.42.1-.8,0-1.42,0-1.83.05a8.6,8.6,0,0,0-8.7,8.54c0,2.47,0,2.47,6.34,13.72,3.07,5.45,7.44,13.12,12.62,22.2l20.21,35.51H333.6l20.2-35.49c5.22-9.14,9.59-16.82,12.63-22.22,6.34-11.25,6.34-11.25,6.34-13.72A8.6,8.6,0,0,0,364.07,267.79Zm-15.34,19c-2.52,4.46-5.72,10.08-9.7,17l-15.31,26.92H188.29L173,303.83c-4-6.95-7.17-12.58-9.69-17L162,284.58l2.55,0c20.59-.15,55.62-.24,91.44-.24s70.85.09,91.44.24l2.55,0Z"/><path class="cls-1" d="M324.76,361.56a10.87,10.87,0,0,0-9.4-5.43H196.59a10.86,10.86,0,0,0-9.46,16.18l42.47,75.37h51.75l43.41-75.27A10.87,10.87,0,0,0,324.76,361.56Zm-53.23,69.12h-32l-32.42-57.55h97.61Z"/></svg>