<svg id="Layer_1" data-name="Layer 1" xmlns="http://www.w3.org/2000/svg" viewBox="0 0 512 512"><defs><style>.cls-1{fill:#2c40ce;}</style></defs><title>Saleswise Icon</title><path class="cls-1" d="M509,112.78h0a8.71,8.71,0,0,0-7.81-4.27c-3.87.24-91.86,32.24-97,35.29-5.73,3.33-14.49,13.3-16.45,18.72-1.77,5-2.81,6-3.91,6s-13.49-4.15-16-5c-16.8-5.57-31.93-11.73-53.95-22-19.51-9.21-28-11.46-43.37-11.46-7.91,0-13.83.56-18.64,1.75-8.86,2.33-23.06,9-31,14.58L214,151.17l-12.92.73c-6.45.37-24.06,1.7-41,3.1-14.86,1.32-29,2.5-29.72,2.5s-2.4,0-3.19-6.49c-1.26-10-8.88-21.88-17.72-27.55-4-2.6-90.78-34.91-97.8-36.39a10.41,10.41,0,0,0-4.84.72c-.26.13-.56.24-.85.36l-.19.07c-4.28,1.65-4.39,4.46-4.15,100L2,313.36l2.34,2.26L6.65,318l19,.29c11.23.2,21.44-.08,24.27-.67a46.15,46.15,0,0,0,19.9-10.25l5.91-5.33L98,318.9c12.25,9.23,26.41,20.35,32,25,35.48,29.43,86.41,68.16,95.6,72.7,18.34,9.32,37.55,11.05,50.15,4.52,4.89-2.45,6.11-2.61,11-1.43,13.22,3.16,28.4-3.53,36.89-16.27l3.21-5.05,9.31-.22c13.21-.48,24.87-6.47,31.18-16,3.11-4.77,4-5.32,9.4-5.86,16-1.74,29.5-15.5,30.65-31.32l.46-7.31,13.92-7.6,14.16-7.83,6.1,5.87a52.29,52.29,0,0,0,11.5,7.93l6.41,3.05,21.57.3c23.59.39,25.27-.08,27.59-4,1.4-2.35,1.49-16.18,1.49-111.33C510.5,132.43,510.46,115.12,509,112.78ZM60,291c-1.21,1.93-4.48,4.46-7.09,6-4.87,2.92-6.15,3-18.45,3H20l-.3-94.8c-.24-88.84.1-92.87,1.45-94.22l.36-.38.79-.1c1.56,0,37.36,13.06,37.71,13.19,20.21,7.25,37.78,14.18,40,15.53,5.63,3.68,10,12.89,9.32,19.72C108.77,164.42,63.4,286.09,60,291Zm319.34,65.2h0c-4.8,2.34-5.61,2.52-8.93.54-2.1-1.26-22.74-21.8-34.6-33.74-18.52-18.84-32.45-31.92-33.9-32.66a7.89,7.89,0,0,0-7.32,1.07,9.43,9.43,0,0,0-4.12,7.74c0,3.13.88,4.28,13.49,17.57,8.18,8.6,22.19,23,31.46,32.16,8.24,8.12,18.05,18.15,18.05,19.77,0,3.58-7.42,8.75-12.26,10.24-10.59,3.13-10.59,3.13-41.39-27.76l-.71-.73C283.05,334.26,271,323,269.68,322.27a7.59,7.59,0,0,0-7,1.16,9.66,9.66,0,0,0-4.21,7.77c0,4,1.12,5.3,30,34.45l22.86,23.07-3.39,5c-1.51,2.22-4.13,5.05-6,5.92-11.64,5.87-14.36,3.53-46.7-29.11-26-26.3-27-27.05-30.13-27.05a9.44,9.44,0,0,0-7.76,4.11,8.56,8.56,0,0,0-1,8.05c.59,1.2,9.77,11.37,23.37,25.19l25.21,25.65H256.3c-6.14,0-14.36-2.3-22-6.16-8.68-4.39-43.74-31-87.26-66.17-13.69-11.15-33.41-26.61-44-34.47l-5.26-3.92c-11-8.16-13-9.66-13.56-10.19l-.56-.4,0-.8c0-1.74,12.43-34.86,19.83-54.44,19.87-52.58,20.62-53.1,21-53.38,1.34-.89,6.39-1.12,7.91-1.17,3.44,0,15.06-.82,25.41-1.8,11-1,21.72-1.9,24.38-2l8-.16-9.15,11.2c-13.62,16.85-18.76,28.07-19,41.38-.1,7,.21,8.65,2.55,13.53a28.78,28.78,0,0,0,17,14.83c11.11,3.78,24.88,2.07,38.79-4.83a70.73,70.73,0,0,0,13.35-9.06c5.06-4.75,7.39-5.83,13.34-7.34a85.68,85.68,0,0,0,11.14-3.61c4.91-2,5.63-2,5.93-2,.53,0,1.52,0,10.18,7.46,4.59,4.08,25.7,21.82,43.38,36.59,52.3,43.5,71.74,63.27,71.74,72.95C389.5,347.63,385.43,353.15,379.38,356.24Zm47.86-51.72v0c-.5,1.53-8.55,6.15-13.31,8.77l-13.18,7.24-18.6-18.5c-12.54-12.54-29.32-27.37-56.1-49.61-20.58-17.08-42.3-35.6-47.26-40.14-10.17-9.51-10.38-9.55-22.65-3.85a75.84,75.84,0,0,1-17.06,5.61,69.66,69.66,0,0,0-8.74,1.94,65.9,65.9,0,0,0-6,6.1,45.47,45.47,0,0,1-25.66,13.47c-6.4,1.13-7.82,1-11.68-.72-6-2.82-8.18-8.08-6.43-15.22,2.78-11.53,17-30.36,33.88-44.78,19.37-16.62,32.93-24,48.37-26.24l2.75-.45,1.19-.19c1.18-.17,2-.31,2.14-.34l.33,0c.54,0,4.48.43,8.61,1a76.77,76.77,0,0,1,14.88,3.68,138.92,138.92,0,0,1,17.09,7.47c18.45,9.18,53.17,22.4,70.09,26.69l4.76,1.19,21.68,57.73C427.72,302.83,427.37,304.06,427.24,304.52Zm65.26,17H479.4c-14.76,0-19.43-1.3-25-6.95-4.09-4.09-5.93-8.53-28.14-67.82-17.79-47.38-23.79-64.54-23.79-68,.1-9.23,6.56-17.87,16.06-21.5,11.8-4.41,69.6-25.6,71.24-25.6h.52l.47.35c1.23,1.09,1.71,1.52,1.71,94.55Z"/></svg>