<svg id="Layer_1" data-name="Layer 1" xmlns="http://www.w3.org/2000/svg" viewBox="0 0 512 512"><defs><style>.cls-1{fill:#2c40ce;}</style></defs><title>Saleswise Icon</title><path class="cls-1" d="M473.5,302.88V271.59c0-161.58-.1-173.2-1.57-177.57C466.31,77.66,457.31,66.84,443.61,60c-8.75-4.37-12.41-5.1-28-5.57l-21.21-.69-.61-16.39c-.17-8.28-.56-9.39-1.13-10.12l-.13-.18c-2.72-3.68-4.16-4.42-8.54-4.42s-5.82.74-8.54,4.41l-.13.17c-.57.75-1,1.86-1.13,10.15l-.62,16.77H266.42l-.62-16.68c-.26-10.6-.69-10.91-4.75-13.89-1.84-1.36-8.25-1.37-10.07,0-4.09,3-4.52,3.3-4.78,13.83l-.62,16.75H138.42l-.62-16.68c-.26-10.61-.67-10.91-4.56-13.79a11.86,11.86,0,0,0-5.85-1.21,8.74,8.74,0,0,0-3.32.5c-4,1.83-6.07,3.35-6.07,15.58V53.74l-21.55.55c-12.55.4-16.11,1-19.78,2.27C58.11,63.32,46.47,75.23,40.07,94c-1.45,4.3-1.57,17.61-1.57,178.07s.12,173.77,1.57,178.08c6.47,19,18.85,31.38,37.86,37.85,4.3,1.45,17.58,1.57,177.57,1.57h32.9c141.79,0,144.64,0,152.43-4.06l1.07-.55,1-.48A52.52,52.52,0,0,0,468,459.42c.4-.81.78-1.5,1.13-2.15l.08-.16C473.44,449.23,473.52,446.34,473.5,302.88Zm-20,141-2.64,5.78a38.14,38.14,0,0,1-17.23,17.24l-5.83,2.67-343.71,0L78.41,467a38.24,38.24,0,0,1-17.24-17.23l-2.67-5.93v-.44L58.2,275.1c-.24-142.29.13-170.23.93-174a34.08,34.08,0,0,1,23.3-25.27c3.82-1.23,12-1.67,17.77-1.67L117.58,74l.62,16.77c.26,10.56.69,10.87,4.75,13.85,1.84,1.36,8.25,1.37,10.07,0,4.09-3,4.52-3.3,4.78-13.83l.62-16.75H245.58l.62,16.68c.26,10.6.69,10.91,4.75,13.89,1.85,1.36,8.25,1.37,10.07,0,4.09-3,4.52-3.3,4.78-13.83l.62-16.75H373.58l.62,16.68c.26,10.6.69,10.91,4.75,13.89,1.84,1.36,8.25,1.37,10.07,0,4.09-3,4.52-3.31,4.78-13.93l.62-17,19.06.57c11.12.31,15.35.76,20.12,2.95a37.38,37.38,0,0,1,17.26,17.25l2.64,5.91Z"/><path class="cls-1" d="M190.42,224.39l-5.27,5.26c-12.76,12.75-20.47,20.44-25.05,21-3.76.48-9.37-5.11-18.67-14.36-1.24-1.25-2.56-2.57-3.94-3.92-11.63-11.64-18.15-19-19.14-20.45a10.24,10.24,0,0,1,2.12-11.07,10.35,10.35,0,0,1,11.1-2.63,114.84,114.84,0,0,1,12.78,11.56L160,225.22l24.05-23.93c14.7-14.6,19.4-18.32,20.66-19.21,7.11-1,12.26,2.36,13.47,8.88C219,195,217.19,197.62,190.42,224.39Z"/><path class="cls-1" d="M394,224.09c0,4.55-.84,6.16-4.75,9-1.63,1-14.83,1-58.55,1.26h-.78c-38.44.19-59.2,0-61.59-.58-2.54-.74-6-4.59-6.52-7.23-.93-5,1.56-10.13,5.8-12,3.07-.86,30.87-.81,61.58-.68h.33c44.69.15,58.18.19,59.82,1.23C393.17,217.94,394,219.54,394,224.09Z"/><path class="cls-1" d="M218.35,336.22c0,3.62-4,8.22-27.93,32.18l-5.27,5.24c-12.77,12.76-20.47,20.45-25.05,21.05-3.74.49-9.3-5-18.51-14.21l-.16-.15c-1.24-1.25-2.57-2.57-4-3.92-11.63-11.65-18.14-19-19.13-20.45a10.43,10.43,0,0,1,13.22-13.69,113,113,0,0,1,12.78,11.55L160,369.22l24.06-23.93c14.7-14.6,19.4-18.32,20.66-19.21,7.11-1,12.26,2.36,13.47,8.88A6.85,6.85,0,0,1,218.35,336.22Z"/><path class="cls-1" d="M394,368.09c0,4.55-.84,6.16-4.75,9-1.63,1-14.83,1-58.55,1.26h-.78c-38.44.19-59.2,0-61.59-.58-2.54-.74-6-4.59-6.52-7.23-.93-5,1.56-10.13,5.8-12,3-.86,30.85-.81,61.58-.68h.33c44.69.15,58.18.19,59.82,1.23C393.17,361.94,394,363.54,394,368.09Z"/></svg>