<svg id="Layer_1" data-name="Layer 1" xmlns="http://www.w3.org/2000/svg" viewBox="0 0 512 512"><defs><style>.cls-1{fill:#2c40ce;}</style></defs><title>Saleswise Icon</title><path class="cls-1" d="M440.49,140.61c0,42.88,0,64.7-.81,68.25a.14.14,0,0,0,0,.06,9.46,9.46,0,0,1-8.82,5.51,10.61,10.61,0,0,1-9.08-5.91c-.77-7.44-1.09-46.9-1.27-68.48L420,68.75l-4.22-8.58c-7-14.14-20.54-24.63-35.33-27.39l-.14,0C375.85,32,331.34,31.61,248,31.61S120.13,32,115.7,32.75l-.14,0C100.77,35.54,87.24,46,80.22,60.19L76,68.78V446.44l4.24,8.61A52.07,52.07,0,0,0,95,473a48.28,48.28,0,0,0,20.58,9.43c5.85,1.09,34.83,1.17,43.63,1.17,17.77,0,28.95,0,34.51.67,3.09.36,3.15.42,4.79,2a9.89,9.89,0,0,1,2.68,9.63,9.62,9.62,0,0,1-6,7.13c-2.25.28-10.92.65-42.66.31-43.8-.38-43.8-.38-56.7-6.4a68.13,68.13,0,0,1-34.94-35.8c-.41-1-.8-1.83-1.16-2.65-4.19-9.41-4.27-12.54-4.25-167.63V224.39c0-155.09.06-158.22,4.25-167.63.36-.82.75-1.68,1.15-2.64A71.37,71.37,0,0,1,115,12.28c6-.18,64-.37,136-.27,111.62.18,132.78.25,137.14,1.57,26.57,8,45.17,27.35,51,53C440.29,71.71,440.49,82.78,440.49,140.61Z"/><path class="cls-1" d="M360.51,141.61a9.91,9.91,0,0,1-5.62,9.07c-5.21.84-37.17.93-107.2.93H143.35L141,150.37a16.51,16.51,0,0,1-3.92-3.12l-.16-.21c-.41-.51-.65-.82-.79-1-.1-1-.1-3.35-.1-4.42s0-3.43.1-4.42c.14-.19.38-.5.79-1L137,136a19.18,19.18,0,0,1,4.1-3.3l2.11-1.06H247.69c70,0,102,.09,107.2.93A9.91,9.91,0,0,1,360.51,141.61Z"/><path class="cls-1" d="M360.51,221.61a9.91,9.91,0,0,1-5.62,9.07c-5.21.84-37.17.93-107.2.93H143.35L141,230.37a16.51,16.51,0,0,1-3.92-3.12l-.16-.21c-.41-.51-.65-.82-.79-1-.1-1-.1-3.35-.1-4.42s0-3.43.1-4.42c.14-.19.38-.5.79-1L137,216a19.18,19.18,0,0,1,4.1-3.3l2.11-1.06H247.69c70,0,102,.09,107.2.93A9.91,9.91,0,0,1,360.51,221.61Z"/><path class="cls-1" d="M398,332.13,351,378.45l-39.76,39.19-6.9,22.84c-1.87,6.06-3.33,11-4.23,14l-.12.41c-.49,1.69-.9,3.07-1.17,4.06-.71,2.58-2.62,9.41,3.2,15.22a13.4,13.4,0,0,0,9.81,4.07,20.57,20.57,0,0,0,5-.7l4.6-1.15c4.76-1.24,9.61-2.56,14.4-3.91L359.27,466l39.6-39.51,46.95-46.95ZM398,354.62l25.18,25-35.58,35.58L351,451.72l-19.4,5.37c-7.21,2-13.39,3.65-16.88,4.53,1-3.34,2.71-9.22,4.93-16.43l5.76-19,36.83-36.34Z"/><path class="cls-1" d="M477,327.33a33.81,33.81,0,0,0-20.35-25.16c-12.86-5.31-27.7-1.88-37.84,8.76l-12,13.26,23.28,23.29,23.63,23.79,12.78-12.35a35,35,0,0,0,11.08-25.44A34.65,34.65,0,0,0,477,327.33ZM453.92,348.8,441.4,336.2l-12.55-12.56,1.59-1.75c5.49-5.77,13.38-7.71,20.08-4.94a17.62,17.62,0,0,1,10.72,13.25,19,19,0,0,1-5.84,17.17Z"/><path class="cls-1" d="M279.77,301.61a9.87,9.87,0,0,1-5.9,9c-2.41,1-24.49,1-66.38,1H143.35L141,310.37a16.51,16.51,0,0,1-3.92-3.12l-.16-.21c-.41-.51-.65-.82-.79-1-.1-1-.1-3.35-.1-4.42s0-3.43.1-4.42c.14-.19.38-.5.79-1L137,296a19.18,19.18,0,0,1,4.1-3.3l2.11-1.06h64.24c41.89,0,64,0,66.38,1A9.87,9.87,0,0,1,279.77,301.61Z"/></svg>