<svg xmlns="http://www.w3.org/2000/svg" width="282.859" height="113.655" viewBox="0 0 282.859 113.655">
  <g id="Group_1133" data-name="Group 1133" transform="translate(-437.143 -1258.847)">
    <path id="Path_4853" data-name="Path 4853" d="M0,0H235.4l47.459,56.709L235.4,112.953H0L56.951,56.316Z" transform="translate(437.143 1259.187)" fill="#ffedbf"/>
    <g id="Group_1104" data-name="Group 1104" transform="translate(292 -895.811)">
      <path id="Path_4861" data-name="Path 4861" d="M-1211.42,9660.02l60,57.346-60,55.581" transform="translate(1376.565 -7505)" fill="none" stroke="rgba(122,122,122,0.1)" stroke-width="1"/>
      <path id="Path_4862" data-name="Path 4862" d="M-1211.42,9660.02l60,57.346-60,55.581" transform="translate(1406.565 -7505)" fill="none" stroke="rgba(122,122,122,0.1)" stroke-width="1"/>
      <path id="Path_4863" data-name="Path 4863" d="M-1211.42,9660.02l60,57.346-60,55.581" transform="translate(1436.565 -7505)" fill="none" stroke="rgba(122,122,122,0.1)" stroke-width="1"/>
      <path id="Path_4864" data-name="Path 4864" d="M-1211.42,9660.02l60,57.346-60,55.581" transform="translate(1466.565 -7505)" fill="none" stroke="rgba(122,122,122,0.1)" stroke-width="1"/>
      <path id="Path_4865" data-name="Path 4865" d="M-1211.42,9660.02l60,57.346-60,55.581" transform="translate(1496.565 -7505)" fill="none" stroke="rgba(122,122,122,0.1)" stroke-width="1"/>
      <path id="Path_4866" data-name="Path 4866" d="M-1211.42,9660.02l60,57.346-60,55.581" transform="translate(1526.565 -7505)" fill="none" stroke="rgba(122,122,122,0.1)" stroke-width="1"/>
      <path id="Path_4867" data-name="Path 4867" d="M-1211.42,9660.02l60,57.346-60,55.581" transform="translate(1556.565 -7505)" fill="none" stroke="rgba(122,122,122,0.1)" stroke-width="1"/>
    </g>
  </g>
</svg>
